<?xml version="1.0" standalone="no"?>
<!DOCTYPE svg PUBLIC "-//W3C//DTD SVG 1.1//EN" "http://www.w3.org/Graphics/SVG/1.1/DTD/svg11.dtd" >
<svg xmlns="http://www.w3.org/2000/svg">
<metadata>
This is a custom SVG webfont generated by Font Squirrel.
Copyright   : Copyright c Yanone 2004 All rights reserved
Designer    : Yanone
Foundry URL : httpwwwyanonede
</metadata>
<defs>
<font id="YanoneKaffeesatzLight" horiz-adv-x="886" >
<font-face units-per-em="2048" ascent="1638" descent="-410" />
<missing-glyph horiz-adv-x="520" />
<glyph unicode=" "  horiz-adv-x="520" />
<glyph unicode="&#x09;" horiz-adv-x="520" />
<glyph unicode="&#xa0;" horiz-adv-x="520" />
<glyph unicode="!" horiz-adv-x="387" d="M104 80q0 39 24 65.5t65 26.5q45 0 67.5 -25.5t22.5 -66.5t-25 -66.5t-65 -25.5q-89 0 -89 92zM125 1415q0 20 28.5 26.5t116.5 6.5l-18 -1006q-2 -33 -24.5 -42t-88.5 -9z" />
<glyph unicode="&#x22;" horiz-adv-x="497" d="M72 1544q0 57 6 60q15 7 46 6q26 0 64 -4q0 -11 1 -24q0 -77 -11 -215q-12 -161 -22 -169l-64 -2q-4 23 -12 148.5t-8 199.5zM309 1540q0 61 6 64q12 7 44 6q26 0 65 -4v-24q0 -77 -10 -215q-12 -161 -23 -169l-63 -2q-19 203 -19 344z" />
<glyph unicode="#" d="M78 408h131l-10 -189q63 0 81.5 4t20.5 25l8 160h234l-11 -189q63 0 82 4t21 25l8 160h137q20 0 24.5 15t4.5 79h-162l15 254h118q20 0 24.5 15t4.5 79h-143l10 176q-63 0 -82 -4t-21 -25l-8 -147h-233l10 176q-63 0 -81.5 -4t-20.5 -25l-9 -147h-127q-18 0 -22 -16.5 t-4 -77.5h149l-14 -254h-109q-18 0 -22 -16.5t-4 -77.5zM313 502l15 254h233l-14 -254h-234z" />
<glyph unicode="$" d="M135 55q0 14 11.5 45t25.5 43q76 -63 227 -63q233 0 234 221q0 66 -31 121t-106 129l-230 231q-127 127 -127 236q0 102 72 165.5t201 76.5v198q0 31 22.5 40t79.5 9v-245q70 -4 124 -18.5t74.5 -28t20.5 -19.5q0 -51 -33 -82q-70 47 -213 47q-227 0 -227 -145 q0 -78 107 -180l251 -250q133 -127 134 -285q0 -289 -271 -326v-190q0 -31 -21.5 -40t-78.5 -9v233q-80 2 -139.5 19.5t-83 36t-23.5 30.5z" />
<glyph unicode="%" horiz-adv-x="1480" d="M137 1081q0 377 291 377q141 0 206.5 -83t65.5 -292q0 -379 -282 -378q-147 0 -214 75.5t-67 300.5zM246 1075q0 -164 41 -222t129 -58q178 0 178 288q0 164 -40 223.5t-126 59.5q-88 0 -135 -66.5t-47 -224.5zM252 -2q0 -33 70 -45q887 1452 886 1464q0 14 -18 32.5 t-47 18.5q-1 0 -223 -357l-446 -727q-222 -368 -222 -386zM784 354q0 377 291 377q141 0 207 -83t66 -292q0 -379 -283 -379q-147 0 -214 76t-67 301zM893 346q0 -164 40 -222t128 -58q180 0 180 288q0 164 -40 223.5t-126 59.5q-90 0 -136 -66.5t-46 -224.5z" />
<glyph unicode="&#x26;" horiz-adv-x="1050" d="M74 352q0 -373 375 -372q207 0 319 143q135 -145 164 -146q23 0 46 31t28 60q-53 31 -175 161q59 139 60 330q0 240 -113 377l148 -4q51 0 67.5 11t16.5 38q0 12 -1 27.5t-1 17.5q-55 4 -183 4q-135 0 -215 -12q76 -59 124 -174t48 -269q0 -139 -34 -249 q-190 223 -339 461.5t-149 361.5q0 115 62.5 156t171.5 41q160 0 258 -70q27 31 26 80q0 33 -84 61.5t-209 28.5q-158 0 -250 -68.5t-92 -214.5q0 -150 166 -432q-100 -57 -167.5 -157.5t-67.5 -221.5zM190 346q0 201 172 303q156 -240 330 -440q-88 -123 -250 -123 q-137 0 -194.5 75.5t-57.5 184.5z" />
<glyph unicode="'" horiz-adv-x="262" d="M72 1544q0 57 6 60q15 7 46 6q26 0 64 -4q0 -11 1 -24q0 -77 -11 -215q-12 -161 -22 -169l-64 -2q-4 23 -12 148.5t-8 199.5z" />
<glyph unicode="(" horiz-adv-x="602" d="M141 664q0 -199 33 -380.5t80 -300t99.5 -209.5t89 -132t49.5 -41q47 0 63 80q-104 119 -201.5 380t-97.5 607q2 322 91 547t208 364q-16 74 -61 74q-10 0 -46 -37t-88.5 -119t-100.5 -192.5t-83 -281.5t-35 -359z" />
<glyph unicode=")" horiz-adv-x="602" d="M47 1579q16 74 62 74q10 0 45.5 -36t88 -118t100.5 -191.5t83 -280.5t35 -363.5t-33 -370.5t-80 -299t-99 -214t-89 -136t-49 -43q-47 0 -64 80q66 82 125 193.5t116.5 330.5t57.5 463q-2 317 -92 549.5t-207 361.5z" />
<glyph unicode="*" horiz-adv-x="966" d="M43 1051q-2 47 27.5 78.5t54.5 19.5l287 -158q2 -27 -8.5 -39t-28.5 -4zM154 602l243 272q11 11 23 11q17 0 35 -23l-199 -319q-25 -25 -55.5 -2.5t-46.5 61.5zM426 1372q-2 18 17 26q12 5 28 4q9 0 19 -1q28 -4 53 -17l-31 -337q-3 -27 -34 -27q-9 0 -21 2zM508 846 q-3 6 -3 10q0 20 38 35l231 -295q18 -25 -13.5 -51.5t-74.5 -32.5zM563 940q-16 21 -16 37q0 18 20 29l320 151q31 -23 38 -66q1 -9 1 -17q0 -29 -23 -36z" />
<glyph unicode="+" d="M86 526h307v-307q66 0 84.5 4t18.5 25v278h278q20 0 24.5 19.5t4.5 83.5h-307v307h-50q-14 0 -29.5 -3t-19.5 -8t-4 -16v-280h-280q-18 0 -22.5 -20t-4.5 -83z" />
<glyph unicode="," horiz-adv-x="368" d="M92 -184q10 -37 47 -37q31 0 84 103.5t53 193.5q0 96 -83 96q-35 0 -57.5 -23.5t-22.5 -60.5q0 -57 41 -82q-5 -92 -62 -190z" />
<glyph unicode="-" horiz-adv-x="593" d="M88 526q0 63 4 83t25 20h389v-49q0 -14 -3 -29.5t-8.5 -20t-15.5 -4.5h-391z" />
<glyph unicode="." horiz-adv-x="368" d="M100 80q0 39 23.5 65.5t62.5 26.5q45 0 67.5 -25.5t22.5 -66.5t-24.5 -66.5t-65.5 -25.5q-86 0 -86 92z" />
<glyph unicode="/" horiz-adv-x="628" d="M20 -41l463 1573q8 25 26.5 30t98.5 5l-461 -1577q-8 -23 -27.5 -27t-99.5 -4z" />
<glyph unicode="0" d="M74 606q0 311 90 467t289 156q195 0 276.5 -143.5t81.5 -452.5q0 -332 -86 -498t-287 -166q-197 0 -280.5 155.5t-83.5 481.5zM195 592q0 -272 57 -396t186 -124q137 0 196.5 140t59.5 427q0 254 -52 370.5t-183 116.5q-141 0 -202.5 -134t-61.5 -400z" />
<glyph unicode="1" d="M74 86q0 -68 2 -86h719q16 0 16 113q-49 -6 -113 -7h-180l25 1117q-8 8 -33 8q-33 0 -200 -37t-167 -49q0 -59 17 -82q227 47 266 49l-29 -1006q-323 0 -323 -20z" />
<glyph unicode="2" d="M74 43q0 -27 8 -43h711q18 0 18 115q-150 -8 -209 -9h-379q61 96 169 221l183 209q76 85 135.5 199.5t59.5 225.5q0 139 -62.5 203.5t-232.5 64.5q-98 0 -184 -18.5t-129 -42t-43 -42.5q0 -47 14 -86v2q125 78 326 78q104 0 145 -43t41 -125q0 -96 -57.5 -201.5 t-131.5 -186.5l-175 -197q-100 -117 -158 -211q-6 -12 -17.5 -28.5t-15.5 -24t-8 -17.5t-6 -20.5t-2 -22.5z" />
<glyph unicode="3" d="M100 -115q0 41 15 88q82 -70 217 -69q152 0 244 115.5t92 293.5q0 72 -27 120t-79 71.5t-103 33t-127 11.5l-2 76q287 160 286 342q0 154 -182 153q-197 0 -317 -82q-12 29 -13 84q0 23 40 47.5t124 42t189 17.5q285 0 284 -238q0 -197 -243 -370q129 -12 209.5 -85 t80.5 -223q0 -236 -126.5 -377t-333.5 -141q-109 0 -168.5 28.5t-59.5 61.5z" />
<glyph unicode="4" d="M78 403q0 -55 31 -88h419v-315q86 0 99.5 5t13.5 36v274h143q37 0 37 68l-4 43q-86 -4 -176 -4l6 801q-37 14 -61 14q-29 0 -54 -18q-143 -129 -298.5 -421.5t-155.5 -394.5zM180 422q39 164 149.5 354.5t217.5 306.5l-19 -661h-348z" />
<glyph unicode="5" d="M80 -123q0 -14 24.5 -32.5t82 -34t132.5 -15.5q473 0 474 602q0 123 -43 208t-115 123t-137 51q-57 12 -120 12h-20q-86 0 -143 -15l39 354q430 -4 465 -4q43 0 53 17.5t10 85.5h-626l-58 -567q2 0 27 6t48.5 11t63 10t76.5 5q360 0 361 -311q0 -217 -85 -349t-274 -132 q-145 0 -221 69q-14 -43 -14 -94z" />
<glyph unicode="6" d="M78 608q0 432 129 629t342 197q223 0 223 -62q0 -41 -10 -78q-84 33 -213 33q-154 0 -252 -153.5t-111 -462.5q102 186 320 186q141 0 225 -98.5t84 -298.5q0 -526 -389 -527q-88 0 -151.5 32t-101.5 83t-59.5 136t-28.5 173t-7 211zM186 588v-35q0 -222 50 -345 q53 -132 194 -132q131 0 203 109.5t72 287.5q0 317 -230 318q-180 0 -289 -203z" />
<glyph unicode="7" d="M106 1229q0 -104 35 -105q473 0 535 6q-145 -211 -288.5 -557t-215.5 -718q0 -29 115 -29q121 686 557 1403h-738z" />
<glyph unicode="8" d="M82 371q0 131 73.5 238.5t186.5 162.5q-92 51 -133 90q-113 84 -113 238q0 170 100.5 258t252.5 88q356 0 356 -330q0 -207 -246 -354q72 -45 127 -92q133 -123 133 -299q0 -178 -91 -283.5t-265 -105.5q-190 0 -285.5 106.5t-95.5 282.5zM188 377q0 -129 70 -208 t199 -79q119 0 186.5 77t67.5 204q0 139 -119 245q-49 43 -143 99q-111 -43 -186 -134t-75 -204zM207 1106q0 -123 112 -201q29 -23 140 -86q240 117 239 293q0 127 -70.5 177t-168.5 50q-109 0 -180.5 -58t-71.5 -175z" />
<glyph unicode="9" d="M74 729q0 520 389 520q209 0 277.5 -139t70.5 -485q-2 -426 -129 -631t-387 -205q-172 0 -172 49q0 51 10 76q66 -18 152 -18q383 0 415 616q-102 -186 -311 -186q-139 0 -227 103t-88 300zM184 748q0 -158 62.5 -237t173.5 -79q170 0 285 203v4q0 125 -8.5 206 t-32 154.5t-72.5 109.5t-127 36q-281 0 -281 -397z" />
<glyph unicode=":" horiz-adv-x="368" d="M100 80q0 39 23.5 65.5t62.5 26.5q45 0 67.5 -25.5t22.5 -66.5t-24.5 -66.5t-65.5 -25.5q-86 0 -86 92zM100 791q0 39 23.5 65.5t62.5 26.5q90 0 90 -92q0 -39 -24.5 -66t-65.5 -27q-86 1 -86 93z" />
<glyph unicode=";" horiz-adv-x="368" d="M86 -184q8 -37 47 -37q31 0 85 103.5t54 193.5q0 96 -84 96q-37 0 -59.5 -23.5t-22.5 -60.5q0 -57 41 -82q-4 -96 -61 -190zM102 791q0 39 24 65.5t62 26.5q90 0 91 -92q0 -39 -25 -66t-66 -27q-86 1 -86 93z" />
<glyph unicode="&#x37e;" horiz-adv-x="368" d="M86 -184q8 -37 47 -37q31 0 85 103.5t54 193.5q0 96 -84 96q-37 0 -59.5 -23.5t-22.5 -60.5q0 -57 41 -82q-4 -96 -61 -190zM102 791q0 39 24 65.5t62 26.5q90 0 91 -92q0 -39 -25 -66t-66 -27q-86 1 -86 93z" />
<glyph unicode="=" d="M86 348h688q20 0 24.5 18.5t4.5 84.5h-690q-18 0 -22.5 -20t-4.5 -83zM86 705h688q20 0 24.5 18t4.5 84h-690q-18 0 -22.5 -19.5t-4.5 -82.5z" />
<glyph unicode="?" horiz-adv-x="604" d="M51 1370q0 -55 15 -90q78 61 196 61q197 0 197 -196q0 -82 -35 -152.5t-99.5 -155.5t-88.5 -130q-47 -84 -48 -179l23 -125q27 -3 47 -3q44 0 55 16q4 10 1 20t-7 41t-4 55q0 76 37 140q18 35 66 96l81 110q35 48 64 125.5t29 159.5q0 154 -81 222.5t-206 68.5 q-90 0 -166 -27.5t-76 -56.5zM178 80q0 39 23.5 65.5t62.5 26.5q45 0 67.5 -25.5t22.5 -66.5t-24.5 -66.5t-65.5 -25.5q-86 0 -86 92z" />
<glyph unicode="@" horiz-adv-x="1544" d="M109 541q0 -180 19 -320.5t50 -237t83 -164t104.5 -106.5t129 -60.5t142 -27.5t158.5 -6q141 0 262 24.5t179 53.5t58 49q0 37 -30 88q-213 -106 -478 -106q-113 0 -189.5 15t-153 63.5t-122 134.5t-73 233.5t-27.5 353.5q0 418 153.5 595t450.5 177q274 0 388 -137 t114 -458q0 -145 -17.5 -258t-43 -175.5t-58 -102.5t-58.5 -52.5t-48 -12.5q-45 0 -86 25q2 29 10 199l12 440q0 9 1 17q0 118 -54 169q-57 55 -178 56q-174 0 -250 -49q-18 -12 -18 -35q0 -39 12 -64q86 49 219 49q84 0 125 -33.5t39 -125.5l-4 -129q-43 16 -125 16 q-139 0 -221 -72.5t-86 -255.5q0 -11 -1 -21q0 -169 64 -228q65 -60 187 -60h8q150 0 227 53q51 -51 129 -51q35 0 68.5 9.5t84 51.5t86 113.5t62.5 212.5t27 334q0 358 -149.5 518t-463.5 160q-338 0 -528 -206.5t-190 -655.5zM604 307q2 139 60.5 194.5t162.5 55.5 q55 0 101 -10l-13 -367q-2 -41 -47 -65.5t-100 -24.5q-82 0 -124 44q-40 42 -40 161v12z" />
<glyph unicode="A" horiz-adv-x="892" d="M14 2l387 1421q4 18 39 18.5t49 -5.5l388 -1409q1 -5 1 -9q0 -10 -8 -14q-10 -6 -41 -6q-39 0 -67 2l-105 395h-421l-97 -372q-4 -25 -55 -25q-41 0 -70 4zM264 500h365l-99 379q-80 309 -84 366q-8 -70 -84 -366z" />
<glyph unicode="B" horiz-adv-x="802" d="M113 0v1399q0 35 51 35h205q63 0 119.5 -13.5t108.5 -44t83 -90t31 -141.5q0 -262 -142 -338q-25 -14 -59 -16q14 0 55 -9q25 -4 48.5 -16t60.5 -41t59.5 -90.5t22.5 -145.5q0 -117 -27 -206.5t-66.5 -142t-95 -85t-104.5 -44t-101 -11.5h-249zM225 729v-627h137 q115 0 190 89.5t75 291.5q0 158 -64.5 203t-200.5 45zM225 831q143 -2 154 -2q211 0 211 293q0 113 -62.5 162t-156.5 49l-146 -2v-500z" />
<glyph unicode="C" horiz-adv-x="722" d="M80 649q0 207 24.5 360.5t61.5 238.5t93 136.5t106.5 65.5t112 14t107.5 -19.5t64.5 -40t18.5 -34.5q0 -51 -21 -78q-72 63 -147 64q-51 0 -90 -13.5t-81 -58.5t-70 -119.5t-45 -206t-17 -309.5q0 -170 19.5 -284.5t58 -172t80.5 -79t99.5 -21.5t116 27.5t82.5 62.5 q20 -37 21 -86q0 -33 -74 -80t-158 -47q-63 0 -106 8.5t-96.5 47t-85 108.5t-53 201t-21.5 315z" />
<glyph unicode="D" horiz-adv-x="847" d="M115 0v1399q0 35 51 35h205q203 0 300 -145.5t97 -487.5q0 -238 -29.5 -399.5t-87 -246.5t-126 -120t-163.5 -35h-247zM227 109h138q47 0 83.5 13t75.5 56t63.5 117t41 202t16.5 304q0 287 -65.5 407.5t-210.5 120.5h-142v-1220z" />
<glyph unicode="E" horiz-adv-x="690" d="M117 0v1407q0 27 26 27h492q0 -72 -3 -88.5t-20 -16.5h-385v-493h361q0 -70 -3 -87.5t-22 -17.5h-336v-627h404q0 -74 -3 -89t-22 -15h-489z" />
<glyph unicode="F" horiz-adv-x="669" d="M117 0v1407q0 27 26 27h492q0 -70 -3 -85.5t-20 -15.5h-385v-495h361q0 -72 -3 -89.5t-22 -17.5h-336v-702q2 -29 -24 -29h-86z" />
<glyph unicode="G" horiz-adv-x="817" d="M74 694q0 231 29.5 386t90 237t134 113.5t178.5 31.5q88 0 151.5 -28.5t63.5 -57.5q-4 -49 -16 -78q-72 55 -179 56q-170 0 -251.5 -142.5t-81.5 -509.5q0 -197 19 -325.5t58 -191t83 -84t108 -21.5q68 0 118 27.5t50 48.5v563h-201v69q0 27 31 27h276v-731 q-27 -39 -98.5 -77t-179.5 -38q-96 0 -163 30t-119 107.5t-76.5 223t-24.5 364.5z" />
<glyph unicode="H" horiz-adv-x="884" d="M113 0v1407q0 20 14 23.5t98 3.5v-600h434v573q0 18 15.5 22.5t97.5 4.5v-1405q0 -20 -14.5 -24.5t-98.5 -4.5v729h-434v-700q0 -20 -14 -24.5t-98 -4.5z" />
<glyph unicode="I" horiz-adv-x="337" d="M111 0q4 348 4 717l-4 659q0 43 15 50.5t99 7.5q-2 -399 -2 -717l2 -688q0 -20 -14 -24.5t-100 -4.5z" />
<glyph unicode="J" horiz-adv-x="618" d="M43 66q0 -35 55.5 -67t153.5 -32q66 0 114 21.5t74.5 54.5t42 84t19.5 97t4 108v1102q-84 0 -98.5 -7.5t-14.5 -48.5v-989q0 -82 -4 -131t-19.5 -96t-48 -68.5t-85.5 -21.5q-104 0 -173 73q-20 -32 -20 -79z" />
<glyph unicode="K" horiz-adv-x="804" d="M111 0v1407q0 20 14 23.5t100 3.5v-617l412 610q31 6 84 6.5t29 -38.5l-412 -580q82 -55 155.5 -156.5t118.5 -206t79 -200.5t48 -158l15 -61q8 -35 -29 -35q-68 0 -88 2q0 92 -90 318.5t-228 357.5q-33 33 -94 59v-706q0 -20 -14 -24.5t-100 -4.5z" />
<glyph unicode="L" horiz-adv-x="673" d="M113 0h493q12 0 18.5 7t6.5 13l2 9v77h-406v1328q-86 0 -100 -5.5t-14 -35.5v-1393z" />
<glyph unicode="M" horiz-adv-x="1019" d="M113 0v1407q0 27 26 27h76l223 -719l72 -244l70 238l215 698q10 27 28 27h86v-1405q0 -20 -14 -24.5t-100 -4.5l4 625l16 536l-151 -504l-119 -348q-6 -18 -23 -18h-53l-115 366q-12 35 -151 504q10 -274 18 -520l2 -612q0 -20 -15 -24.5t-95 -4.5z" />
<glyph unicode="N" horiz-adv-x="933" d="M113 0v1407q0 27 26 27h80l246 -566q39 -109 254 -647q-8 123 -8 699v487q0 20 13 23.5t97 3.5v-1405q0 -29 -26 -29h-78l-252 575q-57 135 -250 642q10 -379 10 -689v-499q0 -20 -14 -24.5t-98 -4.5z" />
<glyph unicode="O" horiz-adv-x="907" d="M74 727q0 393 94 565t295 172t284.5 -164.5t83.5 -570.5q0 -410 -91 -585t-293.5 -175t-287.5 166t-85 592zM199 692q0 -326 57 -467t193 -141q141 0 201.5 149.5t60.5 497.5q0 340 -55.5 479.5t-190.5 139.5q-139 0 -202.5 -153t-63.5 -505z" />
<glyph unicode="P" horiz-adv-x="757" d="M113 0v1407q0 27 26 27h213q358 0 359 -390q0 -223 -98.5 -330.5t-266.5 -107.5h-121v-577q0 -20 -14 -24.5t-98 -4.5zM225 715q8 0 65.5 -1t61.5 -1q236 0 236 342q0 276 -226 276h-68q-32 0 -48.5 -1t-20.5 -1v-614z" />
<glyph unicode="Q" horiz-adv-x="913" d="M78 727q0 393 94 565t295 172t285 -164.5t84 -570.5q0 -358 -69 -535.5t-220 -211.5q18 -88 42.5 -126t78.5 -38q72 0 135 35q18 -25 18 -72q0 -25 -56 -41t-124 -16q-98 0 -146.5 66.5t-74.5 180.5q-184 10 -263 177t-79 579zM203 692q0 -328 57 -468t193 -140 q141 0 201.5 149.5t60.5 497.5q0 340 -55.5 479.5t-192.5 139.5t-200.5 -153t-63.5 -505z" />
<glyph unicode="R" horiz-adv-x="776" d="M113 0v1407q0 27 26 27h213q358 0 359 -390q0 -324 -211 -411q174 -227 207 -600q2 -20 -7.5 -26.5t-42.5 -8.5q-43 0 -69 2q-43 408 -201 608q-14 -2 -41 -2h-121v-577q0 -20 -14 -24.5t-98 -4.5zM225 715q8 0 65.5 -1t61.5 -1q236 0 236 342q0 276 -226 276h-68 q-32 0 -48.5 -1t-20.5 -1v-614z" />
<glyph unicode="S" horiz-adv-x="755" d="M68 70q0 14 11 42.5t25 43.5q76 -72 232 -72q123 0 181 70.5t58 191.5q0 78 -30.5 145.5t-108.5 151.5l-233 264q-131 143 -131 273q0 131 89 207.5t247 76.5q86 0 151.5 -17t90 -34t24.5 -27q0 -43 -31 -79q-70 55 -219 55q-106 0 -170 -47t-64 -133t113 -213l258 -289 q133 -141 133 -328q0 -383 -356 -383q-86 0 -151.5 19.5t-92 42.5t-26.5 39z" />
<glyph unicode="T" horiz-adv-x="751" d="M14 1327v80q0 25 27 27h696v-78q0 -12 -6 -19.5t-14 -9.5h-6h-283v-1300q0 -20 -13.5 -23.5t-99.5 -3.5v1327h-301z" />
<glyph unicode="U" horiz-adv-x="937" d="M113 451q0 -63 1 -96t8 -93.5t20.5 -94.5t40 -77t65.5 -66.5t98.5 -40t136.5 -16.5q106 0 203.5 19.5t140.5 46.5v1401q-86 0 -100 -3.5t-14 -23.5v-1288q-90 -45 -230 -45q-74 0 -125 26.5t-75.5 59.5t-38 94t-15.5 99t-2 106v975q-86 0 -100 -4.5t-14 -24.5v-954z" />
<glyph unicode="V" horiz-adv-x="862" d="M12 1424q-2 -4 -1 -9q0 -8 3 -20l326 -1313q31 -119 74 -119q39 0 88 4l350 1467h-92q-8 0 -14.5 -2t-9.5 -9.5t-4 -11.5t-5 -18l-209 -877q-59 -266 -78 -405q-14 115 -84 405l-229 918h-90q-21 -1 -25 -10z" />
<glyph unicode="W" horiz-adv-x="1316" d="M12 1395l271 -1305q27 -125 61 -125q53 0 96 6l160 781q16 88 55 391q49 -336 62 -393l153 -684q25 -104 62 -105q25 0 53.5 3t34.5 3l289 1467h-92q-27 0 -33 -41l-168 -877q-27 -147 -62 -389q-20 150 -63 389l-180 844h-80q-27 0 -33 -41l-160 -803q-20 -113 -57 -389 q-25 174 -66 389l-188 918h-90q-31 0 -25 -39z" />
<glyph unicode="X" horiz-adv-x="872" d="M20 0l345 743l-289 670q-6 16 12 19q16 2 117 2l106 -248q76 -182 135 -346q51 133 142 346l98 227q6 16 20.5 18.5t106.5 2.5l-297 -689l332 -722q3 -6 3 -11q0 -12 -20 -12h-116l-140 307l-143 338q-72 -178 -145 -336l-140 -293q-8 -16 -26 -16h-101z" />
<glyph unicode="Y" horiz-adv-x="739" d="M12 1415q-4 14 12.5 16.5t114.5 2.5l99 -293q43 -119 89 -265.5t48 -168.5q4 49 137 436l94 270q4 14 20.5 17.5t102.5 3.5l-299 -848v-557q0 -23 -13.5 -26t-99.5 -3v584z" />
<glyph unicode="Z" horiz-adv-x="804" d="M51 45l15 -43l649 -2q12 0 18 7t8 13v9v82q-43 -8 -108 -9h-461l571 1237q6 25 7 47q0 16 -4.5 27.5t-8.5 16.5l-4 4h-602q-27 0 -29 -29v-78q35 4 84 4h435l-564 -1233q-6 -20 -6 -53z" />
<glyph unicode="[" horiz-adv-x="849" d="M305 -410h473q23 0 31 4.5t13 27t5 75.5h-409v1882h364q33 0 40 16.5t7 85.5h-434q-59 0 -74.5 -7t-15.5 -34v-2050z" />
<glyph unicode="\" horiz-adv-x="620" d="M23 1532q-2 6 -2 11q0 14 13 19q17 5 99 5l465 -1598q3 -7 3 -12q0 -12 -13 -14q-18 -4 -99 -4z" />
<glyph unicode="]" horiz-adv-x="849" d="M20 -410h437q59 0 73.5 7.5t14.5 33.5v2052h-473q-23 0 -31 -4t-13 -26.5t-5 -75.5h409v-1884h-364q-33 0 -40.5 -16.5t-7.5 -86.5z" />
<glyph unicode="_" horiz-adv-x="784" d="M35 -53q0 14 3 29.5t8 19.5t15 4h691q0 -63 -4.5 -82.5t-24.5 -19.5h-688v49z" />
<glyph unicode="`" horiz-adv-x="483" d="M72 1466q14 -14 148 -114.5t140 -100.5q8 0 19.5 16.5t17.5 32.5l6 17q-16 23 -144 131t-134 108q-18 0 -33.5 -31.5t-19.5 -58.5z" />
<glyph unicode="a" horiz-adv-x="751" d="M74 285q0 -109 23.5 -177.5t70.5 -96t90 -35t111 -7.5q160 0 278 68q10 272 10 637v133q0 248 -211 248q-121 0 -224 -15.5t-134 -33.5q-12 -10 -12 -41q0 -43 14 -70q106 51 313 51q68 0 106 -34.5t38 -127.5v-190q-59 25 -170 24q-137 0 -220 -68t-83 -265zM190 281 q0 154 58.5 201.5t165.5 47.5q78 0 133 -20l-10 -399q-39 -43 -154 -43q-51 0 -76.5 4t-57.5 22.5t-45.5 64.5t-13.5 122z" />
<glyph unicode="b" horiz-adv-x="821" d="M119 31v1419q0 39 19.5 47t92.5 8v-534q88 82 234 82q147 0 218 -90.5t71 -311.5q0 -682 -387 -682q-180 1 -248 62zM231 109q37 -37 138 -37q45 0 85 20.5t83 73.5t68.5 170t25.5 285q0 195 -47 264t-156 69q-121 0 -197 -82v-763z" />
<glyph unicode="c" horiz-adv-x="677" d="M82 489q0 180 32.5 300t91 174.5t115 73t130.5 18.5q61 0 116.5 -23.5t55.5 -44.5q0 -47 -15 -82q-70 47 -147 47q-53 0 -94 -16t-83 -62.5t-64.5 -144.5t-22.5 -246q0 -137 14 -222t48 -126t72 -54t99 -13q94 0 178 63q14 -35 15 -72q0 -27 -64.5 -59.5t-138.5 -32.5 t-119 8.5t-92 38t-71.5 85t-40 152.5t-15.5 238z" />
<glyph unicode="d" horiz-adv-x="823" d="M84 483q0 -164 23.5 -270.5t72.5 -157.5t102.5 -68.5t133.5 -17.5q180 0 291 62v1474q-74 0 -94.5 -8t-20.5 -47v-442q-59 45 -168 45q-150 0 -245 -144.5t-95 -425.5zM205 494q0 236 70.5 347t181.5 111q84 0 135 -41l2 -798q-63 -41 -168 -41q-55 0 -91 14t-67.5 56 t-47 128.5t-15.5 223.5z" />
<glyph unicode="e" horiz-adv-x="768" d="M78 457q0 158 22.5 271.5t55 176t85 97t97.5 44t106 9.5q258 0 258 -328q0 -156 -20 -252q-180 -37 -489 -37q0 -92 12 -158.5t30.5 -104.5t49 -60.5t62.5 -28.5t77 -6q156 0 254 70q14 -37 14 -105q0 -12 -37 -29.5t-104.5 -32t-136.5 -14.5q-80 0 -135.5 17.5 t-104.5 66.5t-72.5 149.5t-23.5 254.5zM193 532q276 0 391 29q8 66 8 144q-2 129 -36 188t-122 59q-45 0 -81 -14t-72.5 -54t-60 -129.5t-27.5 -222.5z" />
<glyph unicode="f" horiz-adv-x="507" d="M31 926q0 70 4 84t28 14h123v131q0 94 21.5 161.5t52.5 102.5t80 54.5t87 23.5t93 4q176 0 176 -49q0 -31 -12 -72q-68 25 -152 25q-53 0 -85.5 -6t-71.5 -27.5t-57.5 -73t-18.5 -133.5v-141h213q0 -70 -4 -84t-25 -14h-184v-897q0 -29 -29 -29h-84v926h-155z" />
<glyph unicode="g" horiz-adv-x="825" d="M68 -172q0 -233 325 -234q190 0 292.5 90.5t102.5 219.5q0 111 -71.5 160t-192.5 65q-307 39 -307 76q0 55 86 125q45 -14 117 -15q170 0 251 103.5t81 273.5q0 188 -115 264q61 -12 113 -12q47 0 47 47q0 20 -13 51h-254q-49 12 -92 13q-150 0 -244 -98.5t-94 -282.5 q0 -231 129 -314q-51 -39 -90 -93t-39 -99q0 -30 33 -52q35 -24 100 -42q-165 -109 -165 -246zM182 -152q0 55 42 110.5t104 94.5q35 -6 116 -14q123 -12 176.5 -42t53.5 -108q0 -74 -72 -131t-201 -57q-219 0 -219 147zM217 678q0 141 61.5 215t155.5 74q205 0 205 -248 q0 -139 -53.5 -225t-157.5 -86q-125 0 -168 70.5t-43 199.5z" />
<glyph unicode="h" horiz-adv-x="811" d="M111 0q86 0 99 3t13 26v835q86 84 221 84q100 0 130 -59.5t30 -265.5v-623q88 0 101.5 3t13.5 26v598q0 272 -45 350t-195 78q-145 0 -256 -88v538q-74 0 -93 -8t-19 -47v-1450z" />
<glyph unicode="i" horiz-adv-x="350" d="M113 1384q4 94 69 95q62 0 62 -87q0 -102 -70 -102q-61 4 -61 94zM117 0v969q0 39 21.5 47t94.5 8v-995q0 -20 -15 -24.5t-101 -4.5z" />
<glyph unicode="j" horiz-adv-x="372" d="M-231 -287q0 51 18 76q82 -53 201 -53q92 0 117.5 54t25.5 190v989q0 39 19.5 47t93.5 8v-1067q0 -158 -49.5 -241t-188.5 -83q-76 0 -132 13.5t-80.5 31t-24.5 35.5zM123 1384q4 94 70 95q62 0 61 -87q0 -102 -70 -102q-61 4 -61 94z" />
<glyph unicode="k" horiz-adv-x="802" d="M117 0q86 0 99 3t13 26v403q82 37 121 47q17 4 36 5q50 0 103 -33q74 -45 107 -162q18 -63 18 -162q0 -63 -8 -127q92 0 107.5 4t19.5 25q6 57 6 108t-6 94q-20 141 -94 219t-156 93q72 37 143.5 123t71.5 204q0 78 -42 131.5t-130 53.5q-176 0 -297 -121v571 q-74 0 -93 -8t-19 -47v-1450zM229 520v297q109 143 250 144q45 0 70.5 -31t25.5 -78q0 -109 -95 -194t-251 -138z" />
<glyph unicode="l" horiz-adv-x="348" d="M117 0q86 0 99 3t13 26v1476q-74 0 -93 -8t-19 -47v-1450z" />
<glyph unicode="m" horiz-adv-x="1212" d="M117 0q86 0 99 3t13 26v878q94 47 189 47q41 0 67.5 -11t42 -25.5t21.5 -56.5t7 -73.5t1 -107.5v-680h86h2q2 2 4 2q18 2 21 12v879q86 59 186 59q94 0 115.5 -51t21.5 -221v-680q86 0 99.5 3t13.5 26v639q0 86 -2 131t-9.5 96t-21.5 75.5t-41.5 47t-67.5 30t-100 7.5 q-143 0 -252 -76q-51 76 -192 76q-156 0 -303 -68v-987z" />
<glyph unicode="n" horiz-adv-x="821" d="M113 0q86 0 99 3t13 26v876q82 49 217 49q109 0 138.5 -55t29.5 -219v-680q86 0 100.5 4t14.5 25v639q0 121 -7 184t-36 115.5t-83 70t-148 17.5q-182 0 -338 -68v-987z" />
<glyph unicode="o" horiz-adv-x="786" d="M63 510q0 545 340 545q166 0 243 -120t77 -423q0 -272 -85 -408.5t-245 -136.5q-86 0 -141 20.5t-100.5 77t-67 166t-21.5 279.5zM184 502q0 -252 49.5 -344t153.5 -92q215 0 215 450q0 252 -48 344t-152.5 92t-161 -102t-56.5 -348z" />
<glyph unicode="p" horiz-adv-x="819" d="M117 -365q0 -29 9 -37t38 -8q41 0 65 9v442q61 -74 174 -74q55 0 107.5 24.5t110 87t93.5 201t36 332.5q0 240 -86 341.5t-252 101.5q-170 0 -295 -80v-1340zM229 166v735q76 53 168 53q121 0 175.5 -77.5t54.5 -286.5q0 -158 -27 -268.5t-70 -160.5t-80.5 -69.5 t-74.5 -19.5q-97 0 -146 94z" />
<glyph unicode="q" horiz-adv-x="835" d="M82 453q0 293 112.5 447.5t297.5 154.5q137 0 227 -64v-1351q0 -33 -12.5 -41.5t-57.5 -8.5q-6 0 -22.5 1t-22.5 1v480q-70 -109 -229 -109q-53 0 -99.5 19.5t-93.5 68.5t-73.5 152t-26.5 250zM205 438q0 -367 207 -366h7q56 0 105 30q53 33 80 99v717q-45 37 -133 36 q-127 0 -196.5 -132t-69.5 -384z" />
<glyph unicode="r" horiz-adv-x="563" d="M113 0q88 0 101 3t13 26v854q70 63 176 63q61 0 115 -31q16 33 17 76q0 63 -148 64q-141 0 -274 -90v-965z" />
<glyph unicode="s" horiz-adv-x="753" d="M80 47q0 39 29 78q88 -53 219 -53q221 0 221 176q0 96 -115 182l-231 188q-123 98 -123 211q0 109 88 167.5t238 58.5q88 0 154.5 -18.5t92 -40t25.5 -38.5q0 -37 -27 -69q-98 63 -223 63q-98 0 -159.5 -31.5t-61.5 -93.5q0 -66 82 -133l246 -194q139 -115 139 -246 q0 -141 -88 -214t-248 -73q-113 0 -185.5 24.5t-72.5 55.5z" />
<glyph unicode="t" horiz-adv-x="610" d="M55 924q0 68 4 84t23 16h127v324q0 33 18.5 39t91.5 6v-369h248q0 -68 -4 -84t-20 -16h-224v-641q0 -74 4.5 -113t26 -70.5t64.5 -31.5q57 0 133 32q8 -33 8 -73q0 -27 -50 -43.5t-116 -16.5q-53 0 -88 18.5t-53.5 42t-27.5 75t-10 86t-1 108.5v627h-154z" />
<glyph unicode="u" horiz-adv-x="851" d="M119 356q0 -219 57 -303t243.5 -84t311.5 66v989q-86 0 -99.5 -3t-13.5 -24v-878q-82 -49 -202 -49q-113 0 -148 57t-35 217v680q-86 0 -100 -3t-14 -24v-641z" />
<glyph unicode="v" horiz-adv-x="729" d="M53 987l238 -909q29 -102 51 -103q43 0 76 5l262 1044q-82 0 -97.5 -4t-19.5 -25l-78 -325q-61 -246 -110 -531h-2q-53 285 -117 529l-88 356q-90 0 -106.5 -5t-8.5 -32z" />
<glyph unicode="w" horiz-adv-x="1132" d="M49 995l215 -925q20 -100 49 -101l82 4l58 248q61 264 110 576q51 -297 121 -576l35 -139q6 -25 28.5 -69t32.5 -44l70 4l233 1051q-88 0 -102 -4t-18 -25l-72 -344l-29 -150l-25 -134q-11 -57 -18.5 -103.5t-12.5 -73t-5 -28.5q-20 100 -96 420l-89 409h-65 q-20 0 -27.5 -6t-11.5 -24l-74 -373l-94 -426q-37 215 -94 489l-82 373q-90 0 -106.5 -4.5t-12.5 -24.5z" />
<glyph unicode="x" horiz-adv-x="894" d="M45 0l334 535l-287 469q-6 14 10 18q18 2 109 2l104 -164q96 -162 140 -244l143 248l92 140q8 16 23.5 18t105.5 2l-297 -479l320 -516q7 -10 6 -16q0 -7 -8 -9q-16 -4 -121 -4l-107 166q-31 49 -172 293l-170 -297l-92 -139q-8 -16 -27.5 -19.5t-105.5 -3.5z" />
<glyph unicode="y" horiz-adv-x="757" d="M14 -322q0 -23 44 -39t124 -16q90 0 147.5 66.5t102.5 247.5l270 1087q-86 0 -101 -4t-19 -31l-140 -565q-33 -154 -53 -307q-23 156 -57 305l-156 602q-86 0 -100.5 -4t-7.5 -31l266 -1022q-31 -139 -71 -191t-93 -52q-86 0 -135 26q-21 -25 -21 -72z" />
<glyph unicode="z" horiz-adv-x="745" d="M61 59l19 -59h571q29 0 29 70q0 33 -2 47q-106 -10 -248 -11h-237l475 822q16 25 16 57q0 12 -3 21.5t-5 13.5l-4 4h-576q-16 0 -20 -18.5t-4 -83.5q115 4 233 4h248l-481 -824q-11 -18 -11 -43z" />
<glyph unicode="|" horiz-adv-x="724" d="M305 -410v2044q0 25 16.5 30t96.5 5v-2048q0 -23 -16.5 -27t-96.5 -4z" />
<glyph unicode="&#xa1;" horiz-adv-x="387" d="M111 961q0 39 24.5 65.5t65.5 26.5q86 0 86 -92q0 -39 -23.5 -66t-62.5 -27q-90 1 -90 93zM123 -408l18 1004q2 33 24.5 43t86.5 10l16 -1024q0 -23 -27.5 -28t-117.5 -5z" />
<glyph unicode="&#xa2;" d="M186 461q0 528 291 586v210q0 31 22.5 40.5t80.5 9.5v-256q55 -4 101 -24.5t46 -39.5q0 -55 -14 -86q-72 45 -148 45q-53 0 -94 -17.5t-83 -64.5t-64.5 -149.5t-22.5 -253.5q0 -170 29.5 -257t75 -110.5t129.5 -23.5q94 0 178 63q14 -29 14 -74q0 -27 -60.5 -59.5 t-131.5 -34.5v-203q0 -31 -21.5 -40t-79.5 -9v256q-127 14 -187.5 117t-60.5 375z" />
<glyph unicode="&#xa5;" d="M78 1415q-4 14 12 16.5t115 2.5l98 -293q43 -119 89 -265.5t48 -168.5q4 49 138 436l94 270q4 14 20.5 17.5t102.5 3.5l-228 -641h203q0 -53 -9 -74t-40 -21h-186l-39 -112v-123h274q0 -55 -9 -74.5t-38 -19.5h-227v-340q0 -20 -14.5 -24.5t-98.5 -4.5v369h-279 q0 55 9.5 74.5t38.5 19.5h231v121l-43 114h-236q0 55 9.5 75t38.5 20h153z" />
<glyph unicode="&#xa8;" horiz-adv-x="671" d="M92 1343q0 35 21.5 59.5t58.5 24.5q39 0 60.5 -23.5t21.5 -60t-22.5 -60t-59.5 -23.5q-80 -1 -80 83zM381 1343q0 35 21.5 59.5t56.5 24.5q84 0 84 -84q0 -37 -23.5 -60t-60.5 -23q-78 -1 -78 83z" />
<glyph unicode="&#xa9;" horiz-adv-x="950" d="M80 1106q0 451 407 450q199 0 293 -100t94 -348q0 -219 -104 -336t-295 -117q-201 0 -298 98.5t-97 352.5zM168 1100q0 -197 73.5 -277t225.5 -80q145 0 231 92.5t86 276.5q0 195 -73.5 279t-221.5 84q-321 0 -321 -375zM311 1081q0 180 54.5 239.5t138.5 59.5 q31 0 61.5 -12t30.5 -22q0 -29 -14 -54q-37 20 -68 21q-57 0 -92 -46t-35 -188q0 -109 24.5 -140.5t82.5 -31.5q43 0 88 25q14 -29 14 -49q0 -14 -35 -29.5t-76 -15.5q-94 0 -134 44.5t-40 198.5z" />
<glyph unicode="&#xaa;" horiz-adv-x="751" d="M74 285q0 -109 23.5 -177.5t70.5 -96t90 -35t111 -7.5q160 0 278 68q10 272 10 637v133q0 248 -211 248q-121 0 -224 -15.5t-134 -33.5q-12 -10 -12 -41q0 -43 14 -70q106 51 313 51q68 0 106 -34.5t38 -127.5v-190q-59 25 -170 24q-137 0 -220 -68t-83 -265zM190 281 q0 154 58.5 201.5t165.5 47.5q78 0 133 -20l-10 -399q-39 -43 -154 -43q-51 0 -76.5 4t-57.5 22.5t-45.5 64.5t-13.5 122z" />
<glyph unicode="&#xab;" horiz-adv-x="854" d="M57 522q0 23 77 149l153 238l75 115q18 0 36 -14.5t24 -28.5l8 -14q0 -25 -65.5 -135.5t-131.5 -208.5l-67 -101q272 -403 272 -452q-27 -70 -65 -70q-316 465 -316 522zM391 512q0 23 75 140.5l150 224.5l76 104q18 0 35.5 -13.5t26.5 -27.5l6 -14q0 -25 -64.5 -128.5 t-130.5 -195.5l-65 -90q268 -352 268 -399q-27 -68 -66 -68q-311 414 -311 467z" />
<glyph unicode="&#xad;" horiz-adv-x="593" d="M88 526q0 63 4 83t25 20h389v-49q0 -14 -3 -29.5t-8.5 -20t-15.5 -4.5h-391z" />
<glyph unicode="&#xae;" horiz-adv-x="950" d="M80 1106q0 451 407 450q199 0 293 -100t94 -348q0 -219 -104 -336t-295 -117q-201 0 -298 98.5t-97 352.5zM168 1100q0 -197 73.5 -277t225.5 -80q145 0 231 92.5t86 276.5q0 195 -73.5 279t-221.5 84q-321 0 -321 -375zM352 844v530q0 10 13 10h100q170 0 170 -147 q0 -113 -84 -152q80 -80 96 -225q0 -16 -22 -18q-2 0 -20.5 1t-24.5 1q-20 158 -95 225h-69v-209q0 -12 -9.5 -14t-41.5 -2h-13zM416 1128h47q104 0 104 109q0 90 -102 90h-49v-199z" />
<glyph unicode="&#xb2;" d="M74 43q0 -27 8 -43h711q18 0 18 115q-150 -8 -209 -9h-379q61 96 169 221l183 209q76 85 135.5 199.5t59.5 225.5q0 139 -62.5 203.5t-232.5 64.5q-98 0 -184 -18.5t-129 -42t-43 -42.5q0 -47 14 -86v2q125 78 326 78q104 0 145 -43t41 -125q0 -96 -57.5 -201.5 t-131.5 -186.5l-175 -197q-100 -117 -158 -211q-6 -12 -17.5 -28.5t-15.5 -24t-8 -17.5t-6 -20.5t-2 -22.5z" />
<glyph unicode="&#xb3;" d="M100 -115q0 41 15 88q82 -70 217 -69q152 0 244 115.5t92 293.5q0 72 -27 120t-79 71.5t-103 33t-127 11.5l-2 76q287 160 286 342q0 154 -182 153q-197 0 -317 -82q-12 29 -13 84q0 23 40 47.5t124 42t189 17.5q285 0 284 -238q0 -197 -243 -370q129 -12 209.5 -85 t80.5 -223q0 -236 -126.5 -377t-333.5 -141q-109 0 -168.5 28.5t-59.5 61.5z" />
<glyph unicode="&#xb4;" horiz-adv-x="538" d="M102 1221q51 53 118 112.5t112 93t49 33.5q18 0 33.5 -30.5t19.5 -57.5q-14 -18 -111.5 -91t-177.5 -126q-8 0 -19 16.5t-17 32.5z" />
<glyph unicode="&#xb7;" horiz-adv-x="425" d="M121 551q0 39 23.5 65.5t62.5 26.5q90 0 90 -92q0 -39 -24.5 -65.5t-65.5 -26.5q-86 0 -86 92z" />
<glyph unicode="&#x2219;" horiz-adv-x="425" d="M121 551q0 39 23.5 65.5t62.5 26.5q90 0 90 -92q0 -39 -24.5 -65.5t-65.5 -26.5q-86 0 -86 92z" />
<glyph unicode="&#xb8;" horiz-adv-x="288" d="M47 -375q8 53 21 68q10 4 19 0t30.5 -11.5t40.5 -7.5q70 0 69 74q0 72 -67 72l-78 -13l39 199h72l-25 -129q2 4 35 4q41 0 70.5 -29.5t29.5 -89.5q0 -78 -43 -117.5t-104 -39.5z" />
<glyph unicode="&#xb9;" d="M74 86q0 -68 2 -86h719q16 0 16 113q-49 -6 -113 -7h-180l25 1117q-8 8 -33 8q-33 0 -200 -37t-167 -49q0 -59 17 -82q227 47 266 49l-29 -1006q-323 0 -323 -20z" />
<glyph unicode="&#xba;" horiz-adv-x="786" d="M63 510q0 545 340 545q166 0 243 -120t77 -423q0 -272 -85 -408.5t-245 -136.5q-86 0 -141 20.5t-100.5 77t-67 166t-21.5 279.5zM184 502q0 -252 49.5 -344t153.5 -92q215 0 215 450q0 252 -48 344t-152.5 92t-161 -102t-56.5 -348z" />
<glyph unicode="&#xbb;" horiz-adv-x="849" d="M88 111q0 -23 15.5 -40.5t31.5 -21.5l15 -6q313 412 313 469q0 25 -76 142.5t-154 222.5l-75 106q-63 -16 -64 -57q0 -25 67 -128l131 -195q63 -88 62 -91q0 -66 -27 -128t-66.5 -106t-78.5 -79t-66.5 -57.5t-27.5 -30.5zM412 68q0 -23 17 -40.5t34 -23.5l16 -4 q313 465 314 522q0 23 -77 149l-153 238l-76 115q-68 -16 -67 -57q0 -25 66.5 -135.5l131.5 -208.5l66 -101q-272 -405 -272 -454z" />
<glyph unicode="&#xbf;" horiz-adv-x="618" d="M29 -109q0 -154 80.5 -222t205.5 -68q88 0 165 27.5t77 58.5q0 49 -14 88q-80 -61 -197 -62q-199 0 -199 199q0 82 36 152.5t99.5 153.5t90.5 130q47 84 47 178l-23 125q-31 5 -53 6q-38 0 -49 -16q-4 -10 -1 -21.5t7 -42t4 -55.5q0 -76 -37 -139q-18 -33 -65 -94 l-82 -110q-35 -48 -63.5 -127t-28.5 -161zM254 977q0 39 24.5 65.5t65.5 26.5q86 0 86 -92q0 -39 -23.5 -65.5t-62.5 -26.5q-90 0 -90 92z" />
<glyph unicode="&#xc0;" horiz-adv-x="878" d="M6 2l387 1421q4 18 39 18.5t49 -5.5l387 -1409q1 -5 2 -9q0 -10 -8 -14q-10 -6 -41 -6q-39 0 -67 2l-105 395h-422l-96 -372q-4 -25 -55 -25q-41 0 -70 4zM184 1876q14 -14 148.5 -114.5t140.5 -100.5q8 0 19.5 16.5t17.5 32.5l6 16q-16 23 -144 131.5t-134 108.5 q-18 0 -34 -31.5t-20 -58.5zM256 500h365l-99 379q-80 309 -84 366q-8 -70 -84 -366z" />
<glyph unicode="&#xc1;" horiz-adv-x="878" d="M6 2l387 1421q4 18 39 18.5t49 -5.5l387 -1409q1 -5 2 -9q0 -10 -8 -14q-10 -6 -41 -6q-39 0 -67 2l-105 395h-422l-96 -372q-4 -25 -55 -25q-41 0 -70 4zM256 500h365l-99 379q-80 309 -84 366q-8 -70 -84 -366zM348 1630q51 53 117.5 112.5t112 93.5t49.5 34 q18 0 33.5 -31t19.5 -57q-14 -18 -111.5 -91t-177.5 -126q-8 0 -19.5 16t-17.5 33z" />
<glyph unicode="&#xc2;" horiz-adv-x="878" d="M6 2l387 1421q4 18 39 18.5t49 -5.5l387 -1409q1 -5 2 -9q0 -10 -8 -14q-10 -6 -41 -6q-39 0 -67 2l-105 395h-422l-96 -372q-4 -25 -55 -25q-41 0 -70 4zM193 1653q27 -37 77 -37q25 0 174 172q6 -12 46 -55l75 -82l37 -37q31 0 57.5 13t26.5 26l-199 219q-16 18 -41 18 q-10 0 -26 -4zM256 500h365l-99 379q-80 309 -84 366q-8 -70 -84 -366z" />
<glyph unicode="&#xc3;" horiz-adv-x="878" d="M6 2l387 1421q4 18 39 18.5t49 -5.5l387 -1409q1 -5 2 -9q0 -10 -8 -14q-10 -6 -41 -6q-39 0 -67 2l-105 395h-422l-96 -372q-4 -25 -55 -25q-41 0 -70 4zM150 1700q27 -57 57 -58q8 0 24.5 23t43 46.5t61.5 23.5q25 0 45 -17.5t34.5 -37t44 -37t68.5 -17.5 q78 0 130.5 45t74.5 90q-18 66 -45 66q-8 0 -23.5 -22.5t-45 -46t-74.5 -23.5q-43 0 -91 52t-96 52q-126 0 -208 -139zM256 500h365l-99 379q-80 309 -84 366q-8 -70 -84 -366z" />
<glyph unicode="&#xc4;" horiz-adv-x="878" d="M6 2l387 1421q4 18 39 18.5t49 -5.5l387 -1409q1 -5 2 -9q0 -10 -8 -14q-10 -6 -41 -6q-39 0 -67 2l-105 395h-422l-96 -372q-4 -25 -55 -25q-41 0 -70 4zM215 1753q0 35 21.5 59.5t58.5 24.5q39 0 60.5 -23.5t21.5 -60.5t-22.5 -60.5t-59.5 -23.5q-80 0 -80 84zM256 500 h365l-99 379q-80 309 -84 366q-8 -70 -84 -366zM504 1753q0 35 21.5 59.5t56.5 24.5q84 0 84 -84q0 -37 -24 -60.5t-60 -23.5q-78 0 -78 84z" />
<glyph unicode="&#xc5;" horiz-adv-x="878" d="M6 2l387 1421q4 18 39 18.5t49 -5.5l387 -1409q1 -5 2 -9q0 -10 -8 -14q-10 -6 -41 -6q-39 0 -67 2l-105 395h-422l-96 -372q-4 -25 -55 -25q-41 0 -70 4zM240 1794q0 82 58 141.5t142 59.5q82 0 140.5 -59.5t58.5 -141.5q0 -84 -58.5 -142.5t-140.5 -58.5 q-84 0 -142 58.5t-58 142.5zM256 500h365l-99 379q-80 309 -84 366q-8 -70 -84 -366zM309 1794q0 -57 38 -95t93.5 -38t93 38t37.5 95q0 55 -38.5 93t-92.5 38q-55 0 -93 -38t-38 -93z" />
<glyph unicode="&#xc6;" horiz-adv-x="1314" d="M37 2l672 1409q10 23 43 23h508q0 -72 -3.5 -88.5t-19.5 -16.5h-383v-493h358q0 -70 -3 -87.5t-19 -17.5h-336v-627h403q0 -74 -3 -89t-21 -15h-492v395h-401l-178 -372q-10 -25 -56 -25q-40 0 -69 4zM389 500h352v792q-33 -88 -174 -422z" />
<glyph unicode="&#xc7;" horiz-adv-x="722" d="M80 649q0 207 24.5 360.5t61.5 238.5t93 136.5t106.5 65.5t112 14t107.5 -19.5t64.5 -40t18.5 -34.5q0 -51 -21 -78q-72 63 -147 64q-51 0 -90 -13.5t-81 -58.5t-70 -119.5t-45 -206t-17 -309.5q0 -170 19.5 -284.5t58 -172t80.5 -79t99.5 -21.5t116 27.5t82.5 62.5 q20 -37 21 -86q0 -31 -67.5 -76t-147.5 -51l-17 -92q2 4 35 4q41 0 71 -29.5t30 -89.5q0 -78 -43 -117.5t-105 -39.5l-108 20q8 53 20 68q10 4 19.5 0t31 -11.5t39.5 -7.5q70 0 70 74q0 72 -68 72l-78 -13l31 164q-68 6 -117 32t-95 94.5t-70.5 206.5t-24.5 345z" />
<glyph unicode="&#xc8;" horiz-adv-x="694" d="M117 0v1407q0 27 26 27h492q0 -72 -3 -88.5t-20 -16.5h-385v-493h361q0 -70 -3 -87.5t-22 -17.5h-336v-627h404q0 -74 -3 -89t-22 -15h-489zM182 1876q14 -14 148.5 -114.5t140.5 -100.5q8 0 19.5 16.5t17.5 32.5l6 16q-16 23 -144 131.5t-134 108.5q-18 0 -34 -31.5 t-20 -58.5z" />
<glyph unicode="&#xc9;" horiz-adv-x="694" d="M117 0v1407q0 27 26 27h492q0 -72 -3 -88.5t-20 -16.5h-385v-493h361q0 -70 -3 -87.5t-22 -17.5h-336v-627h404q0 -74 -3 -89t-22 -15h-489zM319 1630q51 53 118 112.5t112 93.5t49 34q18 0 33.5 -31t19.5 -57q-14 -18 -111.5 -91t-177.5 -126q-8 0 -19 16t-17 33z" />
<glyph unicode="&#xca;" horiz-adv-x="694" d="M102 1653q27 -37 78 -37q25 0 174 172q6 -12 46 -55l75 -82l37 -37q31 0 57.5 13t26.5 26l-199 219q-16 18 -41 18q-10 0 -26 -4zM117 0v1407q0 27 26 27h492q0 -72 -3 -88.5t-20 -16.5h-385v-493h361q0 -70 -3 -87.5t-22 -17.5h-336v-627h404q0 -74 -3 -89t-22 -15h-489 z" />
<glyph unicode="&#xcb;" horiz-adv-x="694" d="M117 0v1407q0 27 26 27h492q0 -72 -3 -88.5t-20 -16.5h-385v-493h361q0 -70 -3 -87.5t-22 -17.5h-336v-627h404q0 -74 -3 -89t-22 -15h-489zM160 1753q0 35 21.5 59.5t58.5 24.5q39 0 60.5 -23.5t21.5 -60.5t-23 -60.5t-59 -23.5q-80 0 -80 84zM449 1753q0 35 21.5 59.5 t55.5 24.5q84 0 84 -84q0 -37 -23.5 -60.5t-60.5 -23.5q-77 0 -77 84z" />
<glyph unicode="&#xcc;" horiz-adv-x="337" d="M-66 1876q14 -14 148.5 -114.5t140.5 -100.5q8 0 19.5 16.5t17.5 32.5l6 16q-16 23 -144 131.5t-134 108.5q-18 0 -34 -31.5t-20 -58.5zM111 0q4 348 4 717l-4 659q0 43 15 50.5t99 7.5q-2 -399 -2 -717l2 -688q0 -20 -14 -24.5t-100 -4.5z" />
<glyph unicode="&#xcd;" horiz-adv-x="337" d="M72 1630q51 53 117.5 112.5t111.5 93.5t49 34q18 0 33.5 -31t19.5 -57q-14 -18 -111 -91t-177 -126q-8 0 -19.5 16t-17.5 33zM111 0q4 348 4 717l-4 659q0 43 15 50.5t99 7.5q-2 -399 -2 -717l2 -688q0 -20 -14 -24.5t-100 -4.5z" />
<glyph unicode="&#xce;" horiz-adv-x="337" d="M-78 1653q27 -37 78 -37q25 0 174 172q6 -12 46 -55l75 -82l37 -37q31 0 57.5 13t26.5 26l-199 219q-16 18 -41 18q-10 0 -26 -4zM111 0q4 348 4 717l-4 659q0 43 15 50.5t99 7.5q-2 -399 -2 -717l2 -688q0 -20 -14 -24.5t-100 -4.5z" />
<glyph unicode="&#xcf;" horiz-adv-x="337" d="M-55 1753q0 35 21.5 59.5t58.5 24.5q39 0 60 -23.5t21 -60.5t-22.5 -60.5t-58.5 -23.5q-80 0 -80 84zM111 0q4 348 4 717l-4 659q0 43 15 50.5t99 7.5q-2 -399 -2 -717l2 -688q0 -20 -14 -24.5t-100 -4.5zM233 1753q0 35 21.5 59.5t56.5 24.5q84 0 84 -84 q0 -37 -23.5 -60.5t-60.5 -23.5q-78 0 -78 84z" />
<glyph unicode="&#xd1;" horiz-adv-x="933" d="M113 0v1407q0 27 26 27h80l246 -566q39 -109 254 -647q-8 123 -8 699v487q0 20 13 23.5t97 3.5v-1405q0 -29 -26 -29h-78l-252 575q-57 135 -250 642q10 -379 10 -689v-499q0 -20 -14 -24.5t-98 -4.5zM176 1700q27 -57 57 -58q8 0 24.5 23t43.5 46.5t61 23.5 q25 0 45.5 -17.5t35 -37t44 -37t68.5 -17.5q78 0 130 45t75 90q-18 66 -45 66q-8 0 -23.5 -22.5t-45.5 -46t-75 -23.5q-43 0 -91 52t-95 52q-127 0 -209 -139z" />
<glyph unicode="&#xd2;" horiz-adv-x="907" d="M74 727q0 393 94 565t295 172t284.5 -164.5t83.5 -570.5q0 -410 -91 -585t-293.5 -175t-287.5 166t-85 592zM199 692q0 -326 57 -467t193 -141q141 0 201.5 149.5t60.5 497.5q0 340 -55.5 479.5t-190.5 139.5q-139 0 -202.5 -153t-63.5 -505zM231 1876 q14 -14 148.5 -114.5t140.5 -100.5q8 0 19.5 16.5t17.5 32.5l6 16q-16 23 -144 131.5t-134 108.5q-18 0 -34 -31.5t-20 -58.5z" />
<glyph unicode="&#xd3;" horiz-adv-x="907" d="M74 727q0 393 94 565t295 172t284.5 -164.5t83.5 -570.5q0 -410 -91 -585t-293.5 -175t-287.5 166t-85 592zM199 692q0 -326 57 -467t193 -141q141 0 201.5 149.5t60.5 497.5q0 340 -55.5 479.5t-190.5 139.5q-139 0 -202.5 -153t-63.5 -505zM348 1630q51 53 117.5 112.5 t112 93.5t49.5 34q18 0 33.5 -31t19.5 -57q-14 -18 -111.5 -91t-177.5 -126q-8 0 -19.5 16t-17.5 33z" />
<glyph unicode="&#xd4;" horiz-adv-x="907" d="M74 727q0 393 94 565t295 172t284.5 -164.5t83.5 -570.5q0 -410 -91 -585t-293.5 -175t-287.5 166t-85 592zM199 692q0 -326 57 -467t193 -141q141 0 201.5 149.5t60.5 497.5q0 340 -55.5 479.5t-190.5 139.5q-139 0 -202.5 -153t-63.5 -505zM207 1653q27 -37 78 -37 q25 0 174 172q6 -12 46 -55l77 -82l34 -37q31 0 57.5 13t26.5 26l-198 219q-16 18 -41 18q-10 0 -27 -4z" />
<glyph unicode="&#xd5;" horiz-adv-x="907" d="M74 727q0 393 94 565t295 172t284.5 -164.5t83.5 -570.5q0 -410 -91 -585t-293.5 -175t-287.5 166t-85 592zM162 1700q27 -57 57 -58q8 0 24.5 23t43 46.5t61.5 23.5q25 0 45.5 -17.5t34.5 -37t44 -37t69 -17.5q78 0 130 45t74 90q-18 66 -45 66q-8 0 -23 -22.5t-45 -46 t-75 -23.5q-43 0 -91 52t-95 52q-127 0 -209 -139zM199 692q0 -326 57 -467t193 -141q141 0 201.5 149.5t60.5 497.5q0 340 -55.5 479.5t-190.5 139.5q-139 0 -202.5 -153t-63.5 -505z" />
<glyph unicode="&#xd6;" horiz-adv-x="907" d="M74 727q0 393 94 565t295 172t284.5 -164.5t83.5 -570.5q0 -410 -91 -585t-293.5 -175t-287.5 166t-85 592zM199 692q0 -326 57 -467t193 -141q141 0 201.5 149.5t60.5 497.5q0 340 -55.5 479.5t-190.5 139.5q-139 0 -202.5 -153t-63.5 -505zM227 1753q0 35 21.5 59.5 t58.5 24.5q39 0 60.5 -23.5t21.5 -60.5t-22.5 -60.5t-59.5 -23.5q-80 0 -80 84zM516 1753q0 35 21.5 59.5t56.5 24.5q84 0 84 -84q0 -37 -23.5 -60.5t-60.5 -23.5q-78 0 -78 84z" />
<glyph unicode="&#xd7;" d="M178 795l193 -220l-191 -215l35 -34q10 -10 22.5 -19.5t19.5 -8.5t15 9l168 191l172 -191q20 -10 32.5 -2t57.5 55l-192 215l195 220q-63 61 -78 59q-6 0 -15 -6l-172 -193l-170 193q-18 8 -31.5 0t-60.5 -53z" />
<glyph unicode="&#xd8;" horiz-adv-x="950" d="M96 727q0 393 94.5 565t294.5 172q158 0 240 -96q33 90 41 105q70 -4 76 -37q0 -14 -58 -170q70 -166 70 -537q0 -410 -91 -585t-294 -175q-162 0 -246 99l-18 -44l-16.5 -39.5t-6.5 -17.5h-7q-16 0 -37 7q-26 9 -29 30q0 10 61 156q-74 172 -74 567zM221 692 q0 -299 43 -436l379 1016q-53 78 -156 78q-139 0 -202.5 -153t-63.5 -505zM307 160q57 -76 158 -76q141 0 204.5 141.5t63.5 505.5q0 295 -43 443z" />
<glyph unicode="&#xd9;" horiz-adv-x="937" d="M113 451q0 -63 1 -96t8 -93.5t20.5 -94.5t40 -77t65.5 -66.5t98.5 -40t136.5 -16.5q106 0 203.5 19.5t140.5 46.5v1401q-86 0 -100 -3.5t-14 -23.5v-1288q-90 -45 -230 -45q-74 0 -125 26.5t-75.5 59.5t-38 94t-15.5 99t-2 106v975q-86 0 -100 -4.5t-14 -24.5v-954z M242 1876q14 -14 148 -114.5t140 -100.5q8 0 19.5 16.5t17.5 32.5l6 16q-16 23 -144 131.5t-134 108.5q-18 0 -33.5 -31.5t-19.5 -58.5z" />
<glyph unicode="&#xda;" horiz-adv-x="937" d="M113 451q0 -63 1 -96t8 -93.5t20.5 -94.5t40 -77t65.5 -66.5t98.5 -40t136.5 -16.5q106 0 203.5 19.5t140.5 46.5v1401q-86 0 -100 -3.5t-14 -23.5v-1288q-90 -45 -230 -45q-74 0 -125 26.5t-75.5 59.5t-38 94t-15.5 99t-2 106v975q-86 0 -100 -4.5t-14 -24.5v-954z M365 1630q51 53 117.5 112.5t111.5 93.5t49 34q18 0 33.5 -31t19.5 -57q-14 -18 -111.5 -91t-176.5 -126q-8 0 -19.5 16t-17.5 33z" />
<glyph unicode="&#xdb;" horiz-adv-x="937" d="M113 451q0 -63 1 -96t8 -93.5t20.5 -94.5t40 -77t65.5 -66.5t98.5 -40t136.5 -16.5q106 0 203.5 19.5t140.5 46.5v1401q-86 0 -100 -3.5t-14 -23.5v-1288q-90 -45 -230 -45q-74 0 -125 26.5t-75.5 59.5t-38 94t-15.5 99t-2 106v975q-86 0 -100 -4.5t-14 -24.5v-954z M223 1653q27 -37 78 -37q25 0 174 172q6 -12 46 -55l77 -82l35 -37q31 0 57.5 13t26.5 26l-199 219q-16 18 -41 18q-10 0 -26 -4z" />
<glyph unicode="&#xdc;" horiz-adv-x="937" d="M113 451q0 -63 1 -96t8 -93.5t20.5 -94.5t40 -77t65.5 -66.5t98.5 -40t136.5 -16.5q106 0 203.5 19.5t140.5 46.5v1401q-86 0 -100 -3.5t-14 -23.5v-1288q-90 -45 -230 -45q-74 0 -125 26.5t-75.5 59.5t-38 94t-15.5 99t-2 106v975q-86 0 -100 -4.5t-14 -24.5v-954z M244 1753q0 35 21.5 59.5t58.5 24.5q39 0 60.5 -23.5t21.5 -60.5t-23 -60.5t-59 -23.5q-80 0 -80 84zM532 1753q0 35 21.5 59.5t56.5 24.5q84 0 84 -84q0 -37 -23.5 -60.5t-60.5 -23.5q-78 0 -78 84z" />
<glyph unicode="&#xdd;" horiz-adv-x="739" d="M12 1415q-4 14 12.5 16.5t114.5 2.5l99 -293q43 -119 89 -265.5t48 -168.5q4 49 137 436l94 270q4 14 20.5 17.5t102.5 3.5l-299 -848v-557q0 -23 -13.5 -26t-99.5 -3v584zM285 1630q51 53 117.5 112.5t111.5 93.5t49 34q18 0 33.5 -31t19.5 -57q-14 -18 -111 -91 t-177 -126q-8 0 -19.5 16t-17.5 33z" />
<glyph unicode="&#xdf;" horiz-adv-x="962" d="M100 -10q18 41 19 108l-2 1026q0 166 83 234.5t238 68.5q201 0 299.5 -83.5t98.5 -192.5q0 -63 -41 -112.5t-90.5 -75t-90.5 -65.5t-41 -87q0 -39 37 -81t90.5 -83t106.5 -89t90 -117.5t37 -151.5q0 -152 -82 -236t-225 -84q-72 0 -130.5 16.5t-85 36t-26.5 35.5 q0 39 31 78q72 -63 190 -63q92 0 149.5 54t57.5 159q0 63 -37 121.5t-90 103.5l-106 89q-53 44 -90 97.5t-37 108.5q0 63 41 112.5t91 77t91 68.5t41 88q0 72 -68.5 124t-202.5 52q-117 0 -167 -60.5t-50 -207.5l2 -1014q0 -41 -13 -57.5t-52 -16.5z" />
<glyph unicode="&#xe0;" horiz-adv-x="751" d="M74 285q0 -109 23.5 -177.5t70.5 -96t90 -35t111 -7.5q160 0 278 68q10 272 10 637v133q0 248 -211 248q-121 0 -224 -15.5t-134 -33.5q-12 -10 -12 -41q0 -43 14 -70q106 51 313 51q68 0 106 -34.5t38 -127.5v-190q-59 25 -170 24q-137 0 -220 -68t-83 -265zM156 1466 q14 -14 148 -114.5t140 -100.5q8 0 19.5 16.5t17.5 32.5l6 17q-16 23 -144 131t-134 108q-18 0 -33.5 -31.5t-19.5 -58.5zM190 281q0 154 58.5 201.5t165.5 47.5q78 0 133 -20l-10 -399q-39 -43 -154 -43q-51 0 -76.5 4t-57.5 22.5t-45.5 64.5t-13.5 122z" />
<glyph unicode="&#xe1;" horiz-adv-x="751" d="M74 285q0 -109 23.5 -177.5t70.5 -96t90 -35t111 -7.5q160 0 278 68q10 272 10 637v133q0 248 -211 248q-121 0 -224 -15.5t-134 -33.5q-12 -10 -12 -41q0 -43 14 -70q106 51 313 51q68 0 106 -34.5t38 -127.5v-190q-59 25 -170 24q-137 0 -220 -68t-83 -265zM190 281 q0 154 58.5 201.5t165.5 47.5q78 0 133 -20l-10 -399q-39 -43 -154 -43q-51 0 -76.5 4t-57.5 22.5t-45.5 64.5t-13.5 122zM264 1296q51 53 118 112.5t112 93.5t49 34q18 0 33.5 -30.5t19.5 -57.5q-14 -18 -111.5 -91t-177.5 -126q-8 0 -19.5 16.5t-17.5 32.5z" />
<glyph unicode="&#xe2;" horiz-adv-x="751" d="M74 285q0 -109 23.5 -177.5t70.5 -96t90 -35t111 -7.5q160 0 278 68q10 272 10 637v133q0 248 -211 248q-121 0 -224 -15.5t-134 -33.5q-12 -10 -12 -41q0 -43 14 -70q106 51 313 51q68 0 106 -34.5t38 -127.5v-190q-59 25 -170 24q-137 0 -220 -68t-83 -265zM123 1305 q27 -37 78 -37q25 0 174 172q6 -12 46 -56l75 -81l36 -37q31 0 57.5 13t26.5 26l-198 219q-16 18 -41 18q-10 0 -27 -4zM190 281q0 154 58.5 201.5t165.5 47.5q78 0 133 -20l-10 -399q-39 -43 -154 -43q-51 0 -76.5 4t-57.5 22.5t-45.5 64.5t-13.5 122z" />
<glyph unicode="&#xe3;" horiz-adv-x="755" d="M78 285q0 -109 23.5 -177.5t70.5 -96t90 -35t111 -7.5q160 0 278 68q10 272 11 637v133q0 248 -211 248q-121 0 -224.5 -15.5t-134.5 -33.5q-12 -10 -12 -41q0 -43 14 -70q106 51 314 51q68 0 105.5 -34.5t37.5 -127.5v-190q-59 25 -170 24q-137 0 -220 -68t-83 -265z M80 1325q27 -57 57 -57q8 0 24.5 23.5t43 46t61.5 22.5q29 0 53.5 -26.5t57.5 -54.5t82 -28q78 0 130 45t75 90q-18 66 -46 66q-8 0 -23 -23.5t-45 -46t-75 -22.5q-43 0 -91 52t-95 52q-127 0 -209 -139zM195 281q0 154 58 201.5t165 47.5q78 0 133 -20l-10 -399 q-39 -43 -154 -43q-51 0 -76.5 4t-57.5 22.5t-45 64.5t-13 122z" />
<glyph unicode="&#xe4;" horiz-adv-x="751" d="M74 285q0 -109 23.5 -177.5t70.5 -96t90 -35t111 -7.5q160 0 278 68q10 272 10 637v133q0 248 -211 248q-121 0 -224 -15.5t-134 -33.5q-12 -10 -12 -41q0 -43 14 -70q106 51 313 51q68 0 106 -34.5t38 -127.5v-190q-59 25 -170 24q-137 0 -220 -68t-83 -265zM145 1343 q0 35 21.5 59.5t58.5 24.5q39 0 60.5 -23.5t21.5 -60t-22.5 -60t-59.5 -23.5q-80 -1 -80 83zM190 281q0 154 58.5 201.5t165.5 47.5q78 0 133 -20l-10 -399q-39 -43 -154 -43q-51 0 -76.5 4t-57.5 22.5t-45.5 64.5t-13.5 122zM434 1343q0 35 21.5 59.5t56.5 24.5 q84 0 84 -84q0 -37 -23.5 -60t-60.5 -23q-78 -1 -78 83z" />
<glyph unicode="&#xe5;" horiz-adv-x="751" d="M74 285q0 -109 23.5 -177.5t70.5 -96t90 -35t111 -7.5q160 0 278 68q10 272 10 637v133q0 248 -211 248q-121 0 -224 -15.5t-134 -33.5q-12 -10 -12 -41q0 -43 14 -70q106 51 313 51q68 0 106 -34.5t38 -127.5v-190q-59 25 -170 24q-137 0 -220 -68t-83 -265zM176 1438 q0 82 58.5 141t142.5 59q82 0 140 -59t58 -141q0 -84 -58 -142.5t-140 -58.5q-84 0 -142.5 58.5t-58.5 142.5zM190 281q0 154 58.5 201.5t165.5 47.5q78 0 133 -20l-10 -399q-39 -43 -154 -43q-51 0 -76.5 4t-57.5 22.5t-45.5 64.5t-13.5 122zM246 1438q0 -57 38 -95t93 -38 q53 0 92 37.5t39 95.5q0 55 -39 93t-92 38q-55 0 -93 -38t-38 -93z" />
<glyph unicode="&#xe6;" horiz-adv-x="1271" d="M74 291q0 -109 23.5 -177.5t70.5 -98t90 -38t111 -8.5q170 0 274 62v41q70 -102 246 -103q70 0 137.5 14.5t104 32t36.5 29.5q0 68 -14 105q-100 -70 -254 -70q-59 0 -96 12t-71 50t-49 116t-15 199v35q143 -31 301 -31q100 0 188 14q20 96 21 252q0 328 -258 328 q-98 0 -168 -33t-117 -129q-14 86 -68.5 124t-154.5 38q-225 0 -312 -56q-18 -8 -18 -38q0 -41 14 -68q98 59 277 59q84 0 129 -34.5t45 -126.5v-183q-59 25 -170 25q-137 0 -220 -72.5t-83 -269.5zM190 289q0 152 59.5 204t164.5 52q78 0 133 -21v-415q-45 -45 -164 -46 q-47 0 -75.5 6.5t-58.5 27t-44.5 68.5t-14.5 124zM672 586q16 219 79.5 292.5t157.5 73.5q88 0 122 -59t36 -188q0 -78 -8 -144q-43 -8 -107 -8q-139 0 -280 33z" />
<glyph unicode="&#xe7;" horiz-adv-x="708" d="M102 489q0 180 33 300t91.5 174.5t114.5 73t130 18.5q61 0 116.5 -23.5t55.5 -44.5q0 -47 -14 -82q-70 47 -148 47q-53 0 -94 -16t-83 -62.5t-64.5 -144.5t-22.5 -246q0 -137 14.5 -222t48 -126t71.5 -54t100 -13q94 0 178 63q14 -35 14 -72q0 -27 -62.5 -58.5 t-136.5 -33.5l-16 -90q2 4 35 4q41 0 70.5 -29.5t29.5 -89.5q0 -78 -43 -117.5t-104 -39.5l-109 20q8 53 21 68q10 4 19 0t30.5 -11.5t40.5 -7.5q70 0 69 74q0 72 -67 72l-78 -13l31 162q-94 6 -148.5 45t-88.5 153.5t-34 321.5z" />
<glyph unicode="&#xe8;" horiz-adv-x="761" d="M78 457q0 158 22.5 271.5t55 176t85 97t97.5 44t106 9.5q258 0 258 -328q0 -156 -20 -252q-180 -37 -489 -37q0 -92 12 -158.5t30.5 -104.5t49 -60.5t62.5 -28.5t77 -6q156 0 254 70q14 -37 14 -105q0 -12 -37 -29.5t-104.5 -32t-136.5 -14.5q-80 0 -135.5 17.5 t-104.5 66.5t-72.5 149.5t-23.5 254.5zM193 532q276 0 391 29q8 66 8 144q-2 129 -36 188t-122 59q-45 0 -81 -14t-72.5 -54t-60 -129.5t-27.5 -222.5zM215 1466q14 -14 148.5 -114.5t140.5 -100.5q8 0 19.5 16.5t17.5 32.5l6 17q-16 23 -144.5 131t-134.5 108 q-18 0 -33.5 -31.5t-19.5 -58.5z" />
<glyph unicode="&#xe9;" horiz-adv-x="761" d="M78 457q0 158 22.5 271.5t55 176t85 97t97.5 44t106 9.5q258 0 258 -328q0 -156 -20 -252q-180 -37 -489 -37q0 -92 12 -158.5t30.5 -104.5t49 -60.5t62.5 -28.5t77 -6q156 0 254 70q14 -37 14 -105q0 -12 -37 -29.5t-104.5 -32t-136.5 -14.5q-80 0 -135.5 17.5 t-104.5 66.5t-72.5 149.5t-23.5 254.5zM193 532q276 0 391 29q8 66 8 144q-2 129 -36 188t-122 59q-45 0 -81 -14t-72.5 -54t-60 -129.5t-27.5 -222.5zM272 1247q51 53 118 112.5t112 93.5t49 34q18 0 33.5 -31t19.5 -57q-14 -18 -111.5 -91t-177.5 -126q-8 0 -19 16t-17 33 z" />
<glyph unicode="&#xea;" horiz-adv-x="761" d="M78 457q0 158 22.5 271.5t55 176t85 97t97.5 44t106 9.5q258 0 258 -328q0 -156 -20 -252q-180 -37 -489 -37q0 -92 12 -158.5t30.5 -104.5t49 -60.5t62.5 -28.5t77 -6q156 0 254 70q14 -37 14 -105q0 -12 -37 -29.5t-104.5 -32t-136.5 -14.5q-80 0 -135.5 17.5 t-104.5 66.5t-72.5 149.5t-23.5 254.5zM156 1243q27 -37 77 -37q25 0 175 172q6 -12 46 -55l74 -82l37 -37q31 0 57.5 13.5t26.5 25.5l-198 219q-16 18 -41 19q-10 0 -27 -4zM193 532q276 0 391 29q8 66 8 144q-2 129 -36 188t-122 59q-45 0 -81 -14t-72.5 -54t-60 -129.5 t-27.5 -222.5z" />
<glyph unicode="&#xeb;" horiz-adv-x="761" d="M78 457q0 158 22.5 271.5t55 176t85 97t97.5 44t106 9.5q258 0 258 -328q0 -156 -20 -252q-180 -37 -489 -37q0 -92 12 -158.5t30.5 -104.5t49 -60.5t62.5 -28.5t77 -6q156 0 254 70q14 -37 14 -105q0 -12 -37 -29.5t-104.5 -32t-136.5 -14.5q-80 0 -135.5 17.5 t-104.5 66.5t-72.5 149.5t-23.5 254.5zM182 1343q0 35 21.5 59.5t58.5 24.5q39 0 60.5 -23.5t21.5 -60t-22.5 -60t-59.5 -23.5q-80 -1 -80 83zM193 532q276 0 391 29q8 66 8 144q-2 129 -36 188t-122 59q-45 0 -81 -14t-72.5 -54t-60 -129.5t-27.5 -222.5zM471 1343 q0 35 21.5 59.5t56.5 24.5q84 0 84 -84q0 -37 -23.5 -60t-60.5 -23q-78 -1 -78 83z" />
<glyph unicode="&#xec;" horiz-adv-x="350" d="M-55 1397q14 -14 148 -114.5t140 -100.5q8 0 19.5 16t17.5 33l6 16q-16 23 -144 131.5t-134 108.5q-18 0 -33.5 -31.5t-19.5 -58.5zM117 0v969q0 39 21.5 47t94.5 8v-995q0 -20 -15 -24.5t-101 -4.5z" />
<glyph unicode="&#xed;" horiz-adv-x="350" d="M55 1221q51 53 118 112.5t112 93t49 33.5q18 0 33.5 -30.5t19.5 -57.5q-14 -18 -111.5 -91t-177.5 -126q-8 0 -19 16.5t-18 32.5zM117 0v969q0 39 21.5 47t94.5 8v-995q0 -20 -15 -24.5t-101 -4.5z" />
<glyph unicode="&#xee;" horiz-adv-x="350" d="M-68 1243q27 -37 78 -37q25 0 174 172q6 -12 46 -55l77 -82l35 -37q31 0 57.5 13.5t26.5 25.5l-199 219q-16 18 -41 19q-10 0 -26 -4zM117 0v969q0 39 21.5 47t94.5 8v-995q0 -20 -15 -24.5t-101 -4.5z" />
<glyph unicode="&#xef;" horiz-adv-x="350" d="M-47 1352q0 35 21.5 59.5t58.5 24.5q39 0 60.5 -23.5t21.5 -60.5t-22.5 -60.5t-59.5 -23.5q-80 0 -80 84zM117 0v969q0 39 21.5 47t94.5 8v-995q0 -20 -15 -24.5t-101 -4.5zM242 1352q0 35 21.5 59.5t55.5 24.5q84 0 84 -84q0 -37 -23.5 -60.5t-60.5 -23.5q-77 0 -77 84z " />
<glyph unicode="&#xf1;" horiz-adv-x="821" d="M113 0q86 0 99 3t13 26v876q82 49 217 49q109 0 138.5 -55t29.5 -219v-680q86 0 100.5 4t14.5 25v639q0 121 -7 184t-36 115.5t-83 70t-148 17.5q-182 0 -338 -68v-987zM119 1317q27 -57 57 -57q8 0 24.5 23.5t43 46t61.5 22.5q29 0 53.5 -27t57.5 -54.5t82 -27.5 q78 0 130 45t74 90q-18 66 -45 66q-8 0 -23.5 -23.5t-45 -46t-74.5 -22.5q-43 0 -91 52t-95 52q-127 0 -209 -139z" />
<glyph unicode="&#xf2;" horiz-adv-x="833" d="M88 510q0 545 340 545q166 0 243 -120t77 -423q0 -272 -85 -408.5t-245 -136.5q-86 0 -141.5 20.5t-100.5 77t-66.5 166t-21.5 279.5zM203 1466q14 -14 148 -114.5t141 -100.5q8 0 19 16.5t17 32.5l7 17q-16 23 -144.5 131t-134.5 108q-18 0 -33.5 -31.5t-19.5 -58.5z M209 502q0 -252 49 -344t154 -92q215 0 215 450q0 252 -48.5 344t-152.5 92t-160.5 -102t-56.5 -348z" />
<glyph unicode="&#xf3;" horiz-adv-x="833" d="M88 510q0 545 340 545q166 0 243 -120t77 -423q0 -272 -85 -408.5t-245 -136.5q-86 0 -141.5 20.5t-100.5 77t-66.5 166t-21.5 279.5zM209 502q0 -252 49 -344t154 -92q215 0 215 450q0 252 -48.5 344t-152.5 92t-160.5 -102t-56.5 -348zM299 1221q51 53 117.5 112.5 t111.5 93t50 33.5q18 0 33.5 -30.5t19.5 -57.5q-14 -18 -111.5 -91t-177.5 -126q-8 0 -19.5 16.5t-17.5 32.5z" />
<glyph unicode="&#xf4;" horiz-adv-x="833" d="M88 510q0 545 340 545q166 0 243 -120t77 -423q0 -272 -85 -408.5t-245 -136.5q-86 0 -141.5 20.5t-100.5 77t-66.5 166t-21.5 279.5zM170 1243q27 -37 78 -37q25 0 174 172q6 -12 46 -55l77 -82l35 -37q31 0 57.5 13.5t26.5 25.5l-199 219q-16 18 -41 19q-10 0 -27 -4z M209 502q0 -252 49 -344t154 -92q215 0 215 450q0 252 -48.5 344t-152.5 92t-160.5 -102t-56.5 -348z" />
<glyph unicode="&#xf5;" horiz-adv-x="833" d="M88 510q0 545 340 545q166 0 243 -120t77 -423q0 -272 -85 -408.5t-245 -136.5q-86 0 -141.5 20.5t-100.5 77t-66.5 166t-21.5 279.5zM125 1290q27 -57 57 -57q8 0 24.5 22.5t43 46t61.5 23.5q25 0 45.5 -17.5t35 -37t44 -36.5t68.5 -17q78 0 130 45t75 90q-18 66 -45 65 q-8 0 -23.5 -22.5t-45.5 -46t-75 -23.5q-43 0 -91 52.5t-95 52.5q-127 -1 -209 -140zM209 502q0 -252 49 -344t154 -92q215 0 215 450q0 252 -48.5 344t-152.5 92t-160.5 -102t-56.5 -348z" />
<glyph unicode="&#xf6;" horiz-adv-x="833" d="M88 510q0 545 340 545q166 0 243 -120t77 -423q0 -272 -85 -408.5t-245 -136.5q-86 0 -141.5 20.5t-100.5 77t-66.5 166t-21.5 279.5zM193 1343q0 35 21.5 59.5t57.5 24.5q39 0 60.5 -23.5t21.5 -60t-22.5 -60t-59.5 -23.5q-79 -1 -79 83zM209 502q0 -252 49 -344 t154 -92q215 0 215 450q0 252 -48.5 344t-152.5 92t-160.5 -102t-56.5 -348zM481 1343q0 35 21.5 59.5t56.5 24.5q84 0 84 -84q0 -37 -23.5 -60t-60.5 -23q-78 -1 -78 83z" />
<glyph unicode="&#xf7;" d="M86 526h688q20 0 24.5 19.5t4.5 83.5h-690q-18 0 -22.5 -20t-4.5 -83zM358 289q0 35 21.5 59.5t58.5 24.5q39 0 60.5 -23.5t21.5 -60.5t-22.5 -61.5t-59.5 -24.5q-80 0 -80 86zM358 856q0 35 21.5 59.5t58.5 24.5q82 0 82 -84q0 -37 -22.5 -61.5t-59.5 -24.5 q-80 0 -80 86z" />
<glyph unicode="&#xf8;" horiz-adv-x="868" d="M57 4q0 8 95 164q-37 119 -37 342q0 545 338 545q156 0 229 -101q57 96 72 115q68 -16 67 -49q0 -6 -90 -166q41 -127 41 -342q0 -272 -85 -408.5t-245 -136.5q-178 0 -247 107q-39 -70 -72 -119q-18 2 -42 15.5t-24 33.5zM233 502q0 -147 15 -232l352 594 q-45 88 -149.5 88t-161 -103t-56.5 -347zM276 170q45 -104 160 -104q215 0 215 450q0 150 -20 252z" />
<glyph unicode="&#xf9;" horiz-adv-x="851" d="M119 356q0 -219 57 -303t243.5 -84t311.5 66v989q-86 0 -99.5 -3t-13.5 -24v-878q-82 -49 -202 -49q-113 0 -148 57t-35 217v680q-86 0 -100 -3t-14 -24v-641zM190 1466q14 -14 148.5 -114.5t140.5 -100.5q8 0 19.5 16.5t17.5 32.5l6 17q-16 23 -144 131t-134 108 q-18 0 -34 -31.5t-20 -58.5z" />
<glyph unicode="&#xfa;" horiz-adv-x="851" d="M119 356q0 -219 57 -303t243.5 -84t311.5 66v989q-86 0 -99.5 -3t-13.5 -24v-878q-82 -49 -202 -49q-113 0 -148 57t-35 217v680q-86 0 -100 -3t-14 -24v-641zM281 1282q51 53 117.5 112.5t111.5 93.5t49 34q18 0 33.5 -31t19.5 -57q-14 -18 -111.5 -91t-176.5 -126 q-8 0 -19.5 16t-17.5 33z" />
<glyph unicode="&#xfb;" horiz-adv-x="851" d="M119 356q0 -219 57 -303t243.5 -84t311.5 66v989q-86 0 -99.5 -3t-13.5 -24v-878q-82 -49 -202 -49q-113 0 -148 57t-35 217v680q-86 0 -100 -3t-14 -24v-641zM186 1243q27 -37 78 -37q25 0 174 172q6 -12 46 -55l77 -82l35 -37q31 0 57.5 13.5t26.5 25.5l-199 219 q-16 18 -41 19q-10 0 -26 -4z" />
<glyph unicode="&#xfc;" horiz-adv-x="851" d="M119 356q0 -219 57 -303t243.5 -84t311.5 66v989q-86 0 -99.5 -3t-13.5 -24v-878q-82 -49 -202 -49q-113 0 -148 57t-35 217v680q-86 0 -100 -3t-14 -24v-641zM207 1343q0 35 21.5 59.5t58.5 24.5q39 0 60.5 -23.5t21.5 -60t-22.5 -60t-59.5 -23.5q-80 -1 -80 83z M496 1343q0 35 21.5 59.5t55.5 24.5q84 0 84 -84q0 -37 -23.5 -60t-60.5 -23q-77 -1 -77 83z" />
<glyph unicode="&#xfd;" horiz-adv-x="757" d="M14 -322q0 -23 44 -39t124 -16q90 0 147.5 66.5t102.5 247.5l270 1087q-86 0 -101 -4t-19 -31l-140 -565q-33 -154 -53 -307q-23 156 -57 305l-156 602q-86 0 -100.5 -4t-7.5 -31l266 -1022q-31 -139 -71 -191t-93 -52q-86 0 -135 26q-21 -25 -21 -72zM303 1221 q51 53 117.5 112.5t112 93t49.5 33.5q18 0 33.5 -30.5t19.5 -57.5q-14 -18 -111.5 -91t-177.5 -126q-8 0 -19.5 16.5t-17.5 32.5z" />
<glyph unicode="&#xff;" horiz-adv-x="757" d="M14 -322q0 -23 44 -39t124 -16q90 0 147.5 66.5t102.5 247.5l270 1087q-86 0 -101 -4t-19 -31l-140 -565q-33 -154 -53 -307q-23 156 -57 305l-156 602q-86 0 -100.5 -4t-7.5 -31l266 -1022q-31 -139 -71 -191t-93 -52q-86 0 -135 26q-21 -25 -21 -72zM174 1343 q0 35 21.5 59.5t58.5 24.5q39 0 60.5 -23.5t21.5 -60t-22.5 -60t-59.5 -23.5q-80 -1 -80 83zM463 1343q0 35 21.5 59.5t56.5 24.5q84 0 84 -84q0 -37 -23.5 -60t-60.5 -23q-78 -1 -78 83z" />
<glyph unicode="&#x152;" horiz-adv-x="1284" d="M74 725q0 391 94 562t295 171q180 0 262 -135v84q0 27 27 27h477q0 -72 -3 -88.5t-20 -16.5h-383v-493h359q0 -70 -3 -87.5t-22 -17.5h-334v-627h404q0 -74 -3 -89t-24 -15h-475v129q-86 -156 -279 -156q-203 0 -287.5 165t-84.5 587zM199 692q0 -326 57 -467t193 -141 q139 0 194 146.5t55 500.5q0 344 -50 481.5t-183 137.5q-139 0 -202.5 -153t-63.5 -505z" />
<glyph unicode="&#x153;" horiz-adv-x="1316" d="M76 510q0 545 340 545q201 0 270 -178q49 106 125 142t176 36q258 0 258 -328q0 -156 -20 -252q-180 -37 -490 -37q0 -92 12.5 -158.5t31 -104.5t49 -60.5t62.5 -28.5t77 -6q156 0 254 70q14 -37 14 -105q0 -12 -37 -29.5t-104.5 -32t-137.5 -14.5q-106 0 -176.5 35 t-111.5 131q-86 -168 -262 -168q-86 0 -141.5 20.5t-100.5 77t-66.5 166t-21.5 279.5zM197 502q0 -252 49 -344t153 -92q215 0 215 450q0 252 -48 344t-152.5 92t-160.5 -102t-56 -348zM735 532q276 0 391 29q8 66 9 144q-2 129 -36 188t-122 59q-45 0 -81 -14t-73 -54 t-60.5 -129.5t-27.5 -222.5z" />
<glyph unicode="&#x178;" horiz-adv-x="739" d="M12 1415q-4 14 12.5 16.5t114.5 2.5l99 -293q43 -119 89 -265.5t48 -168.5q4 49 137 436l94 270q4 14 20.5 17.5t102.5 3.5l-299 -848v-557q0 -23 -13.5 -26t-99.5 -3v584zM145 1753q0 35 21.5 59.5t58.5 24.5q39 0 60.5 -23.5t21.5 -60.5t-22.5 -60.5t-59.5 -23.5 q-80 0 -80 84zM434 1753q0 35 21.5 59.5t56.5 24.5q84 0 84 -84q0 -37 -23.5 -60.5t-60.5 -23.5q-78 0 -78 84z" />
<glyph unicode="&#x2c6;" horiz-adv-x="856" d="M195 1243q27 -37 77 -37q25 0 174 172q6 -12 47 -55l76 -82l35 -37q31 0 57.5 13.5t26.5 25.5l-199 219q-16 18 -40 19q-10 0 -27 -4z" />
<glyph unicode="&#x2dc;" horiz-adv-x="950" d="M170 1290q27 -57 57 -57q8 0 24.5 22.5t43.5 46t61 23.5q25 0 45.5 -17.5t35 -37t44 -36.5t68.5 -17q78 0 130 45t75 90q-18 66 -45 65q-8 0 -23.5 -22.5t-45.5 -46t-75 -23.5q-43 0 -91 52.5t-95 52.5q-127 -1 -209 -140z" />
<glyph unicode="&#x2013;" horiz-adv-x="892" d="M88 526q0 63 4 83t25 20h688v-49q0 -14 -3 -29.5t-8.5 -20t-15.5 -4.5h-690z" />
<glyph unicode="&#x2014;" horiz-adv-x="1433" d="M12 526q0 63 4 83t25 20h1380v-49q0 -14 -3 -29.5t-8 -20t-15 -4.5h-1383z" />
<glyph unicode="&#x2018;" horiz-adv-x="325" d="M76 1284q0 -98 86 -98q35 0 57.5 23.5t22.5 60.5q0 57 -41 82q4 145 47 231q-6 37 -47 37q-27 0 -76 -122t-49 -214z" />
<glyph unicode="&#x2019;" horiz-adv-x="325" d="M78 1212q8 -37 47 -36q27 0 76 121.5t49 213.5q0 98 -84 99q-37 0 -59.5 -23.5t-22.5 -60.5q0 -57 41 -82q-4 -144 -47 -232z" />
<glyph unicode="&#x201a;" horiz-adv-x="321" d="M78 -193q8 -37 47 -36q27 0 76 122.5t49 212.5q0 98 -84 99q-37 0 -59.5 -23.5t-22.5 -60.5q0 -57 41 -82q-4 -142 -47 -232z" />
<glyph unicode="&#x201c;" horiz-adv-x="610" d="M76 1284q0 -98 86 -98q35 0 57.5 23.5t22.5 60.5q0 57 -41 82q4 145 47 231q-6 37 -47 37q-27 0 -76 -122t-49 -214zM360 1284q0 -98 84 -98q37 0 59.5 23.5t22.5 60.5q0 57 -41 82q4 145 47 231q-8 37 -47 37q-29 0 -77 -122t-48 -214z" />
<glyph unicode="&#x201d;" horiz-adv-x="610" d="M78 1212q8 -37 47 -36q27 0 76 121.5t49 213.5q0 98 -84 99q-37 0 -59.5 -23.5t-22.5 -60.5q0 -57 41 -82q-4 -144 -47 -232zM360 1212q8 -37 50 -36q27 0 74.5 121.5t47.5 213.5q0 98 -83 99q-35 0 -57.5 -24.5t-22.5 -59.5q0 -57 41 -82q-5 -146 -50 -232z" />
<glyph unicode="&#x201e;" horiz-adv-x="606" d="M78 -193q8 -37 47 -36q27 0 76 122.5t49 212.5q0 98 -84 99q-37 0 -59.5 -23.5t-22.5 -60.5q0 -57 41 -82q-4 -142 -47 -232zM360 -193q8 -37 50 -36q27 0 74.5 122.5t47.5 212.5q0 98 -83 99q-35 0 -57.5 -23.5t-22.5 -60.5q0 -57 41 -82q-5 -144 -50 -232z" />
<glyph unicode="&#x2022;" horiz-adv-x="438" d="M104 578q0 55 34 94t91 39q61 0 94 -37t33 -96q0 -57 -34.5 -95.5t-92.5 -38.5q-125 1 -125 134z" />
<glyph unicode="&#x2026;" horiz-adv-x="999" d="M90 80q0 39 23.5 65.5t62.5 26.5q45 0 67.5 -25.5t22.5 -66.5t-24.5 -66.5t-65.5 -25.5q-86 0 -86 92zM412 80q0 39 23.5 65.5t62.5 26.5q45 0 67.5 -25.5t22.5 -66.5t-24.5 -66.5t-65.5 -25.5q-86 0 -86 92zM733 80q0 39 23.5 65.5t62.5 26.5q45 0 67.5 -25.5 t22.5 -66.5t-24.5 -66.5t-65.5 -25.5q-86 0 -86 92z" />
<glyph unicode="&#x2039;" horiz-adv-x="524" d="M57 512q0 53 305 512q18 0 36 -14.5t24 -28.5l8 -14q0 -25 -65.5 -138.5t-131.5 -214.5l-67 -102q272 -393 272 -442q-27 -70 -65 -70q-316 455 -316 512z" />
<glyph unicode="&#x203a;" horiz-adv-x="524" d="M88 68q0 -23 16.5 -40.5t32.5 -23.5l17 -4q313 455 313 512q0 25 -76 153l-151 244l-76 115q-70 -16 -70 -57q0 -25 66.5 -138.5t134.5 -214.5l65 -102q-272 -395 -272 -444z" />
<glyph unicode="&#x20ac;" d="M45 430q0 55 9 75.5t38 20.5h135v27q0 94 6 170h-188q0 55 9 74.5t38 19.5h152q18 133 58 223t95.5 131t106.5 55.5t117 14.5q61 0 108 -16.5t66.5 -33.5t19.5 -30q0 -53 -22 -76q-16 14 -60.5 32t-89.5 18t-82 -10.5t-78 -41t-71.5 -98t-46.5 -168.5h333q0 -55 -9 -74.5 t-38 -19.5h-299q-6 -76 -6 -170v-27h277q0 -57 -9.5 -76.5t-38.5 -19.5h-227q8 -113 30.5 -186.5t59.5 -107.5t73 -45t87 -11q125 0 199 74q18 -37 18 -76q0 -29 -72.5 -69t-156.5 -40q-61 0 -104.5 8.5t-90.5 36t-76.5 75.5t-53 134t-30.5 207h-186z" />
<glyph unicode="&#x2122;" horiz-adv-x="1085" d="M70 1368v45l20 21h414v-45l-19 -21h-155v-565q0 -14 -9.5 -16.5t-60.5 -2.5v584h-190zM553 784v629q0 20 20 21h43l103 -285l49 -125q35 102 41 123l98 266q6 20 21 21h49v-629q0 -14 -9.5 -17.5t-60.5 -3.5l2 234q0 35 6 237l-23 -65l-22 -62q-8 -25 -10 -28l-65 -176 q-6 -10 -13 -11h-43l-69 187q-2 4 -11 26l-22 63q-14 40 -25 64q8 -219 11 -235v-213q0 -14 -9.5 -17.5t-60.5 -3.5z" />
<glyph unicode="&#xe000;" horiz-adv-x="1025" d="M0 1025h1025v-1025h-1025v1025z" />
<glyph unicode="&#xfb01;" horiz-adv-x="813" d="M23 926q0 70 4 84t28 14h123v131q0 94 22.5 161.5t53.5 102.5t83 54.5t91 23.5t98 4q53 0 102.5 -7t77 -18.5t27.5 -21.5q0 -49 -14 -84q-82 35 -187 35q-57 0 -90.5 -6t-73.5 -27.5t-58.5 -73t-18.5 -133.5v-141h172q0 -70 -4 -84t-25 -14h-143v-897q0 -29 -29 -29h-84 v926h-155zM584 0v969q0 39 20.5 47t93.5 8v-995q0 -20 -14 -24.5t-100 -4.5z" />
<glyph unicode="&#xfb02;" horiz-adv-x="833" d="M20 926q0 70 4.5 84t28.5 14h123v131q0 94 21.5 161.5t51.5 102.5t76 54.5t78.5 23.5t77.5 4q137 0 236 -57v-1415q0 -29 -29 -29h-84v1386q-55 18 -117 19q-41 0 -64.5 -4t-60 -23.5t-55 -73t-18.5 -139.5v-141h205q0 -70 -4.5 -84t-24.5 -14h-176v-897q0 -29 -27 -29 h-86v926h-156z" />
<glyph unicode="&#xfb03;" horiz-adv-x="1259" d="M29 926q0 70 4 84t28 14h123v131q0 94 24.5 161.5t56.5 102.5t81 54.5t82 23.5t76 4q119 0 203 -74q76 74 262 74q80 0 143.5 -15.5t63.5 -31.5q0 -53 -13 -84q-82 35 -194 35q-53 0 -86 -6t-72 -27.5t-57.5 -73t-18.5 -133.5v-141h172q0 -70 -4 -84t-24 -14h-144v-897 q0 -29 -28 -29h-84v926h-326v-897q0 -29 -27 -29h-86v926h-155zM297 1024h326v131q0 127 34 203q-59 47 -159 47q-35 0 -61.5 -6t-62.5 -26.5t-56.5 -74t-20.5 -133.5v-141zM1028 0v969q0 39 20.5 47t92.5 8v-995q0 -23 -13.5 -26t-99.5 -3z" />
<glyph unicode="&#xfb04;" horiz-adv-x="1280" d="M29 926q0 70 4 84t28 14h123v131q0 94 24.5 161.5t56.5 102.5t81 54.5t82 23.5t76 4q117 0 203 -71q72 72 221 71q137 0 233 -55l-4 -2h4v-1415q0 -23 -13 -26t-97 -3v1386q-55 18 -117 19q-45 0 -72.5 -6t-60.5 -27.5t-49.5 -73t-16.5 -133.5v-141h172q0 -70 -4 -84 t-24 -14h-144v-897q0 -29 -28 -29h-84v926h-326v-897q0 -29 -27 -29h-86v926h-155zM297 1024h326v131q0 127 34 203q-59 47 -159 47q-35 0 -61.5 -6t-62.5 -26.5t-56.5 -74t-20.5 -133.5v-141z" />
</font>
</defs>
</svg>
